ISO-10303-21;
HEADER;
/* Generated by software containing ST-Developer
 * from STEP Tools, Inc. (www.steptools.com) 
 */

FILE_DESCRIPTION(
/* description */ (''),
/* implementation_level */ '2;1');

FILE_NAME(
/* name */ 'bead.step',
/* time_stamp */ '2025-12-07T06:02:01-08:00',
/* author */ (''),
/* organization */ (''),
/* preprocessor_version */ 'ST-DEVELOPER v20.1',
/* originating_system */ 'Autodesk Translation Framework v14.21.0.0',
/* authorisation */ '');

FILE_SCHEMA (('AUTOMOTIVE_DESIGN { 1 0 10303 214 3 1 1 }'));
ENDSEC;

DATA;
#10=MECHANICAL_DESIGN_GEOMETRIC_PRESENTATION_REPRESENTATION('',(#13),#363);
#11=SHAPE_REPRESENTATION_RELATIONSHIP('SRR','None',#370,#12);
#12=ADVANCED_BREP_SHAPE_REPRESENTATION('',(#14),#362);
#13=STYLED_ITEM('',(#379),#14);
#14=MANIFOLD_SOLID_BREP('\X2\5B9E4F53\X0\1',#205);
#15=SPHERICAL_SURFACE('',#239,1.985);
#16=CYLINDRICAL_SURFACE('',#231,0.0749999999999999);
#17=CYLINDRICAL_SURFACE('',#233,0.0749999999999999);
#18=CYLINDRICAL_SURFACE('',#235,0.0749999999999999);
#19=CYLINDRICAL_SURFACE('',#238,0.0749999999999999);
#20=FACE_BOUND('',#66,.T.);
#21=FACE_BOUND('',#68,.T.);
#22=LINE('',#311,#38);
#23=LINE('',#315,#39);
#24=LINE('',#319,#40);
#25=LINE('',#322,#41);
#26=LINE('',#330,#42);
#27=LINE('',#334,#43);
#28=LINE('',#338,#44);
#29=LINE('',#341,#45);
#30=LINE('',#343,#46);
#31=LINE('',#344,#47);
#32=LINE('',#346,#48);
#33=LINE('',#348,#49);
#34=LINE('',#350,#50);
#35=LINE('',#352,#51);
#36=LINE('',#354,#52);
#37=LINE('',#356,#53);
#38=VECTOR('',#249,10.);
#39=VECTOR('',#252,10.);
#40=VECTOR('',#255,10.);
#41=VECTOR('',#258,10.);
#42=VECTOR('',#265,10.);
#43=VECTOR('',#268,10.);
#44=VECTOR('',#271,10.);
#45=VECTOR('',#274,10.);
#46=VECTOR('',#277,10.);
#47=VECTOR('',#278,10.);
#48=VECTOR('',#281,10.);
#49=VECTOR('',#284,10.);
#50=VECTOR('',#287,10.);
#51=VECTOR('',#290,10.);
#52=VECTOR('',#293,10.);
#53=VECTOR('',#296,10.);
#54=FACE_OUTER_BOUND('',#65,.T.);
#55=FACE_OUTER_BOUND('',#67,.T.);
#56=FACE_OUTER_BOUND('',#69,.T.);
#57=FACE_OUTER_BOUND('',#70,.T.);
#58=FACE_OUTER_BOUND('',#71,.T.);
#59=FACE_OUTER_BOUND('',#72,.T.);
#60=FACE_OUTER_BOUND('',#73,.T.);
#61=FACE_OUTER_BOUND('',#74,.T.);
#62=FACE_OUTER_BOUND('',#75,.T.);
#63=FACE_OUTER_BOUND('',#76,.T.);
#64=FACE_OUTER_BOUND('',#77,.T.);
#65=EDGE_LOOP('',(#134));
#66=EDGE_LOOP('',(#135,#136,#137,#138,#139,#140,#141,#142));
#67=EDGE_LOOP('',(#143));
#68=EDGE_LOOP('',(#144,#145,#146,#147,#148,#149,#150,#151));
#69=EDGE_LOOP('',(#152,#153,#154,#155));
#70=EDGE_LOOP('',(#156,#157,#158,#159));
#71=EDGE_LOOP('',(#160,#161,#162,#163));
#72=EDGE_LOOP('',(#164,#165,#166,#167));
#73=EDGE_LOOP('',(#168,#169,#170,#171));
#74=EDGE_LOOP('',(#172,#173,#174,#175));
#75=EDGE_LOOP('',(#176,#177,#178,#179));
#76=EDGE_LOOP('',(#180,#181,#182,#183));
#77=EDGE_LOOP('',(#184,#185,#186,#187));
#78=CIRCLE('',#220,1.10350577705783);
#79=CIRCLE('',#221,0.0749999999999999);
#80=CIRCLE('',#222,0.0749999999999999);
#81=CIRCLE('',#223,0.0749999999999999);
#82=CIRCLE('',#224,0.0749999999999999);
#83=CIRCLE('',#226,1.54198735403375);
#84=CIRCLE('',#227,0.0749999999999999);
#85=CIRCLE('',#228,0.0749999999999999);
#86=CIRCLE('',#229,0.0749999999999999);
#87=CIRCLE('',#230,0.0749999999999999);
#88=CIRCLE('',#240,1.985);
#89=VERTEX_POINT('',#305);
#90=VERTEX_POINT('',#307);
#91=VERTEX_POINT('',#308);
#92=VERTEX_POINT('',#310);
#93=VERTEX_POINT('',#312);
#94=VERTEX_POINT('',#314);
#95=VERTEX_POINT('',#316);
#96=VERTEX_POINT('',#318);
#97=VERTEX_POINT('',#320);
#98=VERTEX_POINT('',#324);
#99=VERTEX_POINT('',#326);
#100=VERTEX_POINT('',#327);
#101=VERTEX_POINT('',#329);
#102=VERTEX_POINT('',#331);
#103=VERTEX_POINT('',#333);
#104=VERTEX_POINT('',#335);
#105=VERTEX_POINT('',#337);
#106=VERTEX_POINT('',#339);
#107=EDGE_CURVE('',#89,#89,#78,.T.);
#108=EDGE_CURVE('',#90,#91,#79,.T.);
#109=EDGE_CURVE('',#92,#90,#22,.T.);
#110=EDGE_CURVE('',#93,#92,#80,.T.);
#111=EDGE_CURVE('',#94,#93,#23,.T.);
#112=EDGE_CURVE('',#95,#94,#81,.T.);
#113=EDGE_CURVE('',#96,#95,#24,.T.);
#114=EDGE_CURVE('',#97,#96,#82,.T.);
#115=EDGE_CURVE('',#91,#97,#25,.T.);
#116=EDGE_CURVE('',#98,#98,#83,.T.);
#117=EDGE_CURVE('',#99,#100,#84,.T.);
#118=EDGE_CURVE('',#101,#99,#26,.T.);
#119=EDGE_CURVE('',#102,#101,#85,.T.);
#120=EDGE_CURVE('',#103,#102,#27,.T.);
#121=EDGE_CURVE('',#104,#103,#86,.T.);
#122=EDGE_CURVE('',#105,#104,#28,.T.);
#123=EDGE_CURVE('',#106,#105,#87,.T.);
#124=EDGE_CURVE('',#100,#106,#29,.T.);
#125=EDGE_CURVE('',#104,#94,#30,.T.);
#126=EDGE_CURVE('',#103,#95,#31,.T.);
#127=EDGE_CURVE('',#105,#93,#32,.T.);
#128=EDGE_CURVE('',#106,#92,#33,.T.);
#129=EDGE_CURVE('',#100,#90,#34,.T.);
#130=EDGE_CURVE('',#99,#91,#35,.T.);
#131=EDGE_CURVE('',#97,#101,#36,.T.);
#132=EDGE_CURVE('',#102,#96,#37,.T.);
#133=EDGE_CURVE('',#89,#98,#88,.T.);
#134=ORIENTED_EDGE('',*,*,#107,.F.);
#135=ORIENTED_EDGE('',*,*,#108,.F.);
#136=ORIENTED_EDGE('',*,*,#109,.F.);
#137=ORIENTED_EDGE('',*,*,#110,.F.);
#138=ORIENTED_EDGE('',*,*,#111,.F.);
#139=ORIENTED_EDGE('',*,*,#112,.F.);
#140=ORIENTED_EDGE('',*,*,#113,.F.);
#141=ORIENTED_EDGE('',*,*,#114,.F.);
#142=ORIENTED_EDGE('',*,*,#115,.F.);
#143=ORIENTED_EDGE('',*,*,#116,.F.);
#144=ORIENTED_EDGE('',*,*,#117,.F.);
#145=ORIENTED_EDGE('',*,*,#118,.F.);
#146=ORIENTED_EDGE('',*,*,#119,.F.);
#147=ORIENTED_EDGE('',*,*,#120,.F.);
#148=ORIENTED_EDGE('',*,*,#121,.F.);
#149=ORIENTED_EDGE('',*,*,#122,.F.);
#150=ORIENTED_EDGE('',*,*,#123,.F.);
#151=ORIENTED_EDGE('',*,*,#124,.F.);
#152=ORIENTED_EDGE('',*,*,#112,.T.);
#153=ORIENTED_EDGE('',*,*,#125,.F.);
#154=ORIENTED_EDGE('',*,*,#121,.T.);
#155=ORIENTED_EDGE('',*,*,#126,.T.);
#156=ORIENTED_EDGE('',*,*,#111,.T.);
#157=ORIENTED_EDGE('',*,*,#127,.F.);
#158=ORIENTED_EDGE('',*,*,#122,.T.);
#159=ORIENTED_EDGE('',*,*,#125,.T.);
#160=ORIENTED_EDGE('',*,*,#110,.T.);
#161=ORIENTED_EDGE('',*,*,#128,.F.);
#162=ORIENTED_EDGE('',*,*,#123,.T.);
#163=ORIENTED_EDGE('',*,*,#127,.T.);
#164=ORIENTED_EDGE('',*,*,#109,.T.);
#165=ORIENTED_EDGE('',*,*,#129,.F.);
#166=ORIENTED_EDGE('',*,*,#124,.T.);
#167=ORIENTED_EDGE('',*,*,#128,.T.);
#168=ORIENTED_EDGE('',*,*,#108,.T.);
#169=ORIENTED_EDGE('',*,*,#130,.F.);
#170=ORIENTED_EDGE('',*,*,#117,.T.);
#171=ORIENTED_EDGE('',*,*,#129,.T.);
#172=ORIENTED_EDGE('',*,*,#115,.T.);
#173=ORIENTED_EDGE('',*,*,#131,.T.);
#174=ORIENTED_EDGE('',*,*,#118,.T.);
#175=ORIENTED_EDGE('',*,*,#130,.T.);
#176=ORIENTED_EDGE('',*,*,#113,.T.);
#177=ORIENTED_EDGE('',*,*,#126,.F.);
#178=ORIENTED_EDGE('',*,*,#120,.T.);
#179=ORIENTED_EDGE('',*,*,#132,.T.);
#180=ORIENTED_EDGE('',*,*,#114,.T.);
#181=ORIENTED_EDGE('',*,*,#132,.F.);
#182=ORIENTED_EDGE('',*,*,#119,.T.);
#183=ORIENTED_EDGE('',*,*,#131,.F.);
#184=ORIENTED_EDGE('',*,*,#107,.T.);
#185=ORIENTED_EDGE('',*,*,#133,.T.);
#186=ORIENTED_EDGE('',*,*,#116,.T.);
#187=ORIENTED_EDGE('',*,*,#133,.F.);
#188=PLANE('',#219);
#189=PLANE('',#225);
#190=PLANE('',#232);
#191=PLANE('',#234);
#192=PLANE('',#236);
#193=PLANE('',#237);
#194=ADVANCED_FACE('',(#54,#20),#188,.F.);
#195=ADVANCED_FACE('',(#55,#21),#189,.F.);
#196=ADVANCED_FACE('',(#56),#16,.F.);
#197=ADVANCED_FACE('',(#57),#190,.F.);
#198=ADVANCED_FACE('',(#58),#17,.F.);
#199=ADVANCED_FACE('',(#59),#191,.F.);
#200=ADVANCED_FACE('',(#60),#18,.F.);
#201=ADVANCED_FACE('',(#61),#192,.F.);
#202=ADVANCED_FACE('',(#62),#193,.F.);
#203=ADVANCED_FACE('',(#63),#19,.F.);
#204=ADVANCED_FACE('',(#64),#15,.T.);
#205=CLOSED_SHELL('',(#194,#195,#196,#197,#198,#199,#200,#201,#202,#203,
#204));
#206=DERIVED_UNIT_ELEMENT(#208,1.);
#207=DERIVED_UNIT_ELEMENT(#365,-3.);
#208=(
MASS_UNIT()
NAMED_UNIT(*)
SI_UNIT(.KILO.,.GRAM.)
);
#209=DERIVED_UNIT((#206,#207));
#210=MEASURE_REPRESENTATION_ITEM('density measure',
POSITIVE_RATIO_MEASURE(7850.),#209);
#211=PROPERTY_DEFINITION_REPRESENTATION(#216,#213);
#212=PROPERTY_DEFINITION_REPRESENTATION(#217,#214);
#213=REPRESENTATION('material name',(#215),#362);
#214=REPRESENTATION('density',(#210),#362);
#215=DESCRIPTIVE_REPRESENTATION_ITEM('\X2\94A2\X0\','\X2\94A2\X0\');
#216=PROPERTY_DEFINITION('material property','material name',#372);
#217=PROPERTY_DEFINITION('material property','density of part',#372);
#218=AXIS2_PLACEMENT_3D('',#303,#241,#242);
#219=AXIS2_PLACEMENT_3D('',#304,#243,#244);
#220=AXIS2_PLACEMENT_3D('',#306,#245,#246);
#221=AXIS2_PLACEMENT_3D('',#309,#247,#248);
#222=AXIS2_PLACEMENT_3D('',#313,#250,#251);
#223=AXIS2_PLACEMENT_3D('',#317,#253,#254);
#224=AXIS2_PLACEMENT_3D('',#321,#256,#257);
#225=AXIS2_PLACEMENT_3D('',#323,#259,#260);
#226=AXIS2_PLACEMENT_3D('',#325,#261,#262);
#227=AXIS2_PLACEMENT_3D('',#328,#263,#264);
#228=AXIS2_PLACEMENT_3D('',#332,#266,#267);
#229=AXIS2_PLACEMENT_3D('',#336,#269,#270);
#230=AXIS2_PLACEMENT_3D('',#340,#272,#273);
#231=AXIS2_PLACEMENT_3D('',#342,#275,#276);
#232=AXIS2_PLACEMENT_3D('',#345,#279,#280);
#233=AXIS2_PLACEMENT_3D('',#347,#282,#283);
#234=AXIS2_PLACEMENT_3D('',#349,#285,#286);
#235=AXIS2_PLACEMENT_3D('',#351,#288,#289);
#236=AXIS2_PLACEMENT_3D('',#353,#291,#292);
#237=AXIS2_PLACEMENT_3D('',#355,#294,#295);
#238=AXIS2_PLACEMENT_3D('',#357,#297,#298);
#239=AXIS2_PLACEMENT_3D('',#358,#299,#300);
#240=AXIS2_PLACEMENT_3D('',#359,#301,#302);
#241=DIRECTION('axis',(0.,0.,1.));
#242=DIRECTION('refdir',(1.,0.,0.));
#243=DIRECTION('center_axis',(0.,0.,-1.));
#244=DIRECTION('ref_axis',(0.,1.,0.));
#245=DIRECTION('center_axis',(0.,0.,-1.));
#246=DIRECTION('ref_axis',(0.,-1.,0.));
#247=DIRECTION('center_axis',(0.,0.,1.));
#248=DIRECTION('ref_axis',(1.,0.,0.));
#249=DIRECTION('',(1.,1.46081976924363E-16,0.));
#250=DIRECTION('center_axis',(0.,0.,1.));
#251=DIRECTION('ref_axis',(1.,0.,0.));
#252=DIRECTION('',(4.93432455388958E-16,-1.,0.));
#253=DIRECTION('center_axis',(0.,0.,1.));
#254=DIRECTION('ref_axis',(1.,0.,0.));
#255=DIRECTION('',(-1.,-4.38245930773088E-16,0.));
#256=DIRECTION('center_axis',(0.,0.,1.));
#257=DIRECTION('ref_axis',(1.,0.,0.));
#258=DIRECTION('',(0.,1.,0.));
#259=DIRECTION('center_axis',(0.,0.,1.));
#260=DIRECTION('ref_axis',(0.,-1.,0.));
#261=DIRECTION('center_axis',(0.,0.,1.));
#262=DIRECTION('ref_axis',(0.,1.,0.));
#263=DIRECTION('center_axis',(0.,0.,-1.));
#264=DIRECTION('ref_axis',(1.,0.,0.));
#265=DIRECTION('',(0.,-1.,0.));
#266=DIRECTION('center_axis',(0.,0.,-1.));
#267=DIRECTION('ref_axis',(1.,0.,0.));
#268=DIRECTION('',(1.,4.38245930773088E-16,0.));
#269=DIRECTION('center_axis',(0.,0.,-1.));
#270=DIRECTION('ref_axis',(1.,0.,0.));
#271=DIRECTION('',(-4.93432455388958E-16,1.,0.));
#272=DIRECTION('center_axis',(0.,0.,-1.));
#273=DIRECTION('ref_axis',(1.,0.,0.));
#274=DIRECTION('',(-1.,-1.46081976924363E-16,0.));
#275=DIRECTION('center_axis',(0.,0.,1.));
#276=DIRECTION('ref_axis',(-0.707106781186547,0.707106781186548,0.));
#277=DIRECTION('',(0.,0.,1.));
#278=DIRECTION('',(0.,0.,1.));
#279=DIRECTION('center_axis',(-1.,-4.93432455388958E-16,0.));
#280=DIRECTION('ref_axis',(4.93432455388958E-16,-1.,0.));
#281=DIRECTION('',(0.,0.,1.));
#282=DIRECTION('center_axis',(0.,0.,1.));
#283=DIRECTION('ref_axis',(-0.707106781186548,-0.707106781186547,0.));
#284=DIRECTION('',(0.,0.,1.));
#285=DIRECTION('center_axis',(1.46081976924363E-16,-1.,0.));
#286=DIRECTION('ref_axis',(1.,1.46081976924363E-16,0.));
#287=DIRECTION('',(0.,0.,1.));
#288=DIRECTION('center_axis',(0.,0.,1.));
#289=DIRECTION('ref_axis',(1.,0.,0.));
#290=DIRECTION('',(0.,0.,1.));
#291=DIRECTION('center_axis',(1.,0.,0.));
#292=DIRECTION('ref_axis',(0.,1.,0.));
#293=DIRECTION('',(0.,0.,-1.));
#294=DIRECTION('center_axis',(-4.38245930773088E-16,1.,0.));
#295=DIRECTION('ref_axis',(-1.,-4.38245930773088E-16,0.));
#296=DIRECTION('',(0.,0.,1.));
#297=DIRECTION('center_axis',(0.,0.,1.));
#298=DIRECTION('ref_axis',(1.,0.,0.));
#299=DIRECTION('center_axis',(6.12323399573677E-17,0.,1.));
#300=DIRECTION('ref_axis',(1.,0.,0.));
#301=DIRECTION('center_axis',(1.22464679914735E-16,-1.,0.));
#302=DIRECTION('ref_axis',(-1.,-1.22464679914735E-16,0.));
#303=CARTESIAN_POINT('',(0.,0.,0.));
#304=CARTESIAN_POINT('Origin',(0.,-3.4999999217689,1.65));
#305=CARTESIAN_POINT('',(-1.10350577705783,-1.35140481771448E-16,1.65));
#306=CARTESIAN_POINT('Origin',(0.,0.,1.65));
#307=CARTESIAN_POINT('',(0.6375,-0.5625,1.65));
#308=CARTESIAN_POINT('',(0.7125,-0.4875,1.65));
#309=CARTESIAN_POINT('Origin',(0.7125,-0.5625,1.65));
#310=CARTESIAN_POINT('',(-0.6375,-0.5625,1.65));
#311=CARTESIAN_POINT('',(-0.31875,-0.5625,1.65));
#312=CARTESIAN_POINT('',(-0.712499999999999,-0.4875,1.65));
#313=CARTESIAN_POINT('Origin',(-0.712499999999999,-0.5625,1.65));
#314=CARTESIAN_POINT('',(-0.7125,0.4875,1.65));
#315=CARTESIAN_POINT('',(-0.712499999999999,-1.50624996088445,1.65));
#316=CARTESIAN_POINT('',(-0.6375,0.5625,1.65));
#317=CARTESIAN_POINT('Origin',(-0.7125,0.5625,1.65));
#318=CARTESIAN_POINT('',(0.6375,0.5625,1.65));
#319=CARTESIAN_POINT('',(0.318749999999999,0.5625,1.65));
#320=CARTESIAN_POINT('',(0.7125,0.487500000000001,1.65));
#321=CARTESIAN_POINT('Origin',(0.7125,0.5625,1.65));
#322=CARTESIAN_POINT('',(0.7125,-1.99374996088445,1.65));
#323=CARTESIAN_POINT('Origin',(0.,3.4999999217689,-1.25));
#324=CARTESIAN_POINT('',(-1.54198735403375,-1.88838987744313E-16,-1.25));
#325=CARTESIAN_POINT('Origin',(0.,0.,-1.25));
#326=CARTESIAN_POINT('',(0.7125,-0.4875,-1.25));
#327=CARTESIAN_POINT('',(0.6375,-0.5625,-1.25));
#328=CARTESIAN_POINT('Origin',(0.7125,-0.5625,-1.25));
#329=CARTESIAN_POINT('',(0.7125,0.487500000000001,-1.25));
#330=CARTESIAN_POINT('',(0.7125,1.50624996088445,-1.25));
#331=CARTESIAN_POINT('',(0.6375,0.5625,-1.25));
#332=CARTESIAN_POINT('Origin',(0.7125,0.5625,-1.25));
#333=CARTESIAN_POINT('',(-0.6375,0.5625,-1.25));
#334=CARTESIAN_POINT('',(0.318750000000001,0.5625,-1.25));
#335=CARTESIAN_POINT('',(-0.7125,0.4875,-1.25));
#336=CARTESIAN_POINT('Origin',(-0.7125,0.5625,-1.25));
#337=CARTESIAN_POINT('',(-0.712499999999999,-0.4875,-1.25));
#338=CARTESIAN_POINT('',(-0.712500000000001,1.99374996088445,-1.25));
#339=CARTESIAN_POINT('',(-0.6375,-0.5625,-1.25));
#340=CARTESIAN_POINT('Origin',(-0.712499999999999,-0.5625,-1.25));
#341=CARTESIAN_POINT('',(-0.318749999999999,-0.5625,-1.25));
#342=CARTESIAN_POINT('Origin',(-0.7125,0.5625,0.));
#343=CARTESIAN_POINT('',(-0.7125,0.4875,0.));
#344=CARTESIAN_POINT('',(-0.6375,0.5625,0.));
#345=CARTESIAN_POINT('Origin',(-0.7125,0.4875,0.));
#346=CARTESIAN_POINT('',(-0.712499999999999,-0.4875,0.));
#347=CARTESIAN_POINT('Origin',(-0.712499999999999,-0.5625,0.));
#348=CARTESIAN_POINT('',(-0.6375,-0.5625,0.));
#349=CARTESIAN_POINT('Origin',(-0.637499999999999,-0.5625,0.));
#350=CARTESIAN_POINT('',(0.6375,-0.5625,0.));
#351=CARTESIAN_POINT('Origin',(0.7125,-0.5625,0.));
#352=CARTESIAN_POINT('',(0.7125,-0.4875,0.));
#353=CARTESIAN_POINT('Origin',(0.7125,-0.4875,0.));
#354=CARTESIAN_POINT('',(0.7125,0.487500000000001,0.));
#355=CARTESIAN_POINT('Origin',(0.6375,0.5625,0.));
#356=CARTESIAN_POINT('',(0.6375,0.5625,0.));
#357=CARTESIAN_POINT('Origin',(0.7125,0.5625,0.));
#358=CARTESIAN_POINT('Origin',(0.,0.,0.));
#359=CARTESIAN_POINT('Origin',(0.,0.,0.));
#360=UNCERTAINTY_MEASURE_WITH_UNIT(LENGTH_MEASURE(0.01),#364,
'DISTANCE_ACCURACY_VALUE',
'Maximum model space distance between geometric entities at asserted c
onnectivities');
#361=UNCERTAINTY_MEASURE_WITH_UNIT(LENGTH_MEASURE(0.01),#364,
'DISTANCE_ACCURACY_VALUE',
'Maximum model space distance between geometric entities at asserted c
onnectivities');
#362=(
GEOMETRIC_REPRESENTATION_CONTEXT(3)
GLOBAL_UNCERTAINTY_ASSIGNED_CONTEXT((#360))
GLOBAL_UNIT_ASSIGNED_CONTEXT((#364,#366,#367))
REPRESENTATION_CONTEXT('','3D')
);
#363=(
GEOMETRIC_REPRESENTATION_CONTEXT(3)
GLOBAL_UNCERTAINTY_ASSIGNED_CONTEXT((#361))
GLOBAL_UNIT_ASSIGNED_CONTEXT((#364,#366,#367))
REPRESENTATION_CONTEXT('','3D')
);
#364=(
LENGTH_UNIT()
NAMED_UNIT(*)
SI_UNIT(.MILLI.,.METRE.)
);
#365=(
LENGTH_UNIT()
NAMED_UNIT(*)
SI_UNIT($,.METRE.)
);
#366=(
NAMED_UNIT(*)
PLANE_ANGLE_UNIT()
SI_UNIT($,.RADIAN.)
);
#367=(
NAMED_UNIT(*)
SI_UNIT($,.STERADIAN.)
SOLID_ANGLE_UNIT()
);
#368=SHAPE_DEFINITION_REPRESENTATION(#369,#370);
#369=PRODUCT_DEFINITION_SHAPE('',$,#372);
#370=SHAPE_REPRESENTATION('',(#218),#362);
#371=PRODUCT_DEFINITION_CONTEXT('part definition',#376,'design');
#372=PRODUCT_DEFINITION('2025-11-02-13-53-45-732','(\X2\672A4FDD5B58\X0\)',
#373,#371);
#373=PRODUCT_DEFINITION_FORMATION('',$,#378);
#374=PRODUCT_RELATED_PRODUCT_CATEGORY('(\X2\672A4FDD5B58\X0\)',
'(\X2\672A4FDD5B58\X0\)',(#378));
#375=APPLICATION_PROTOCOL_DEFINITION('international standard',
'automotive_design',2009,#376);
#376=APPLICATION_CONTEXT(
'Core Data for Automotive Mechanical Design Process');
#377=PRODUCT_CONTEXT('part definition',#376,'mechanical');
#378=PRODUCT('2025-11-02-13-53-45-732','(\X2\672A4FDD5B58\X0\)',$,(#377));
#379=PRESENTATION_STYLE_ASSIGNMENT((#380));
#380=SURFACE_STYLE_USAGE(.BOTH.,#381);
#381=SURFACE_SIDE_STYLE('',(#382));
#382=SURFACE_STYLE_FILL_AREA(#383);
#383=FILL_AREA_STYLE('\X2\94A2\X0\ - \X2\7F0E5149\X0\',(#384));
#384=FILL_AREA_STYLE_COLOUR('\X2\94A2\X0\ - \X2\7F0E5149\X0\',#385);
#385=COLOUR_RGB('\X2\94A2\X0\ - \X2\7F0E5149\X0\',0.627450980392157,0.627450980392157,
0.627450980392157);
ENDSEC;
END-ISO-10303-21;
