ISO-10303-21;
HEADER;
/* Generated by software containing ST-Developer
 * from STEP Tools, Inc. (www.steptools.com) 
 */

FILE_DESCRIPTION(
/* description */ (''),
/* implementation_level */ '2;1');

FILE_NAME(
/* name */ 'proto_mount.step',
/* time_stamp */ '2025-11-16T19:16:26-08:00',
/* author */ (''),
/* organization */ (''),
/* preprocessor_version */ 'ST-DEVELOPER v20.1',
/* originating_system */ 'Autodesk Translation Framework v14.17.0.0',
/* authorisation */ '');

FILE_SCHEMA (('AUTOMOTIVE_DESIGN { 1 0 10303 214 3 1 1 }'));
ENDSEC;

DATA;
#10=MECHANICAL_DESIGN_GEOMETRIC_PRESENTATION_REPRESENTATION('',(#13),#1005);
#11=SHAPE_REPRESENTATION_RELATIONSHIP('SRR','None',#1012,#12);
#12=ADVANCED_BREP_SHAPE_REPRESENTATION('',(#14),#1004);
#13=STYLED_ITEM('',(#1021),#14);
#14=MANIFOLD_SOLID_BREP('\X2\5B9E4F53\X0\1',#605);
#15=ELLIPSE('',#629,4.41672953736251,2.55);
#16=ELLIPSE('',#632,1.29903809922427,0.750000000000001);
#17=ELLIPSE('',#635,1.29903809922427,0.75);
#18=ELLIPSE('',#637,1.29903809922427,0.75);
#19=LINE('',#838,#87);
#20=LINE('',#843,#88);
#21=LINE('',#845,#89);
#22=LINE('',#847,#90);
#23=LINE('',#851,#91);
#24=LINE('',#853,#92);
#25=LINE('',#855,#93);
#26=LINE('',#857,#94);
#27=LINE('',#859,#95);
#28=LINE('',#863,#96);
#29=LINE('',#865,#97);
#30=LINE('',#867,#98);
#31=LINE('',#869,#99);
#32=LINE('',#871,#100);
#33=LINE('',#875,#101);
#34=LINE('',#876,#102);
#35=LINE('',#879,#103);
#36=LINE('',#884,#104);
#37=LINE('',#885,#105);
#38=LINE('',#887,#106);
#39=LINE('',#889,#107);
#40=LINE('',#890,#108);
#41=LINE('',#892,#109);
#42=LINE('',#894,#110);
#43=LINE('',#895,#111);
#44=LINE('',#899,#112);
#45=LINE('',#902,#113);
#46=LINE('',#903,#114);
#47=LINE('',#905,#115);
#48=LINE('',#907,#116);
#49=LINE('',#908,#117);
#50=LINE('',#912,#118);
#51=LINE('',#916,#119);
#52=LINE('',#919,#120);
#53=LINE('',#921,#121);
#54=LINE('',#922,#122);
#55=LINE('',#925,#123);
#56=LINE('',#927,#124);
#57=LINE('',#931,#125);
#58=LINE('',#935,#126);
#59=LINE('',#939,#127);
#60=LINE('',#941,#128);
#61=LINE('',#942,#129);
#62=LINE('',#946,#130);
#63=LINE('',#949,#131);
#64=LINE('',#950,#132);
#65=LINE('',#954,#133);
#66=LINE('',#957,#134);
#67=LINE('',#958,#135);
#68=LINE('',#962,#136);
#69=LINE('',#966,#137);
#70=LINE('',#968,#138);
#71=LINE('',#970,#139);
#72=LINE('',#971,#140);
#73=LINE('',#973,#141);
#74=LINE('',#974,#142);
#75=LINE('',#976,#143);
#76=LINE('',#978,#144);
#77=LINE('',#982,#145);
#78=LINE('',#984,#146);
#79=LINE('',#985,#147);
#80=LINE('',#987,#148);
#81=LINE('',#988,#149);
#82=LINE('',#993,#150);
#83=LINE('',#995,#151);
#84=LINE('',#996,#152);
#85=LINE('',#998,#153);
#86=LINE('',#999,#154);
#87=VECTOR('',#676,1.4);
#88=VECTOR('',#681,10.);
#89=VECTOR('',#682,10.);
#90=VECTOR('',#683,10.);
#91=VECTOR('',#686,10.);
#92=VECTOR('',#687,10.);
#93=VECTOR('',#688,10.);
#94=VECTOR('',#689,10.);
#95=VECTOR('',#690,10.);
#96=VECTOR('',#693,10.);
#97=VECTOR('',#694,10.);
#98=VECTOR('',#695,10.);
#99=VECTOR('',#696,10.);
#100=VECTOR('',#697,10.);
#101=VECTOR('',#700,10.);
#102=VECTOR('',#701,10.);
#103=VECTOR('',#704,2.55);
#104=VECTOR('',#709,10.);
#105=VECTOR('',#710,10.);
#106=VECTOR('',#711,10.);
#107=VECTOR('',#712,10.);
#108=VECTOR('',#713,10.);
#109=VECTOR('',#714,10.);
#110=VECTOR('',#715,10.);
#111=VECTOR('',#716,10.);
#112=VECTOR('',#721,10.);
#113=VECTOR('',#724,10.);
#114=VECTOR('',#725,10.);
#115=VECTOR('',#726,10.);
#116=VECTOR('',#727,10.);
#117=VECTOR('',#728,10.);
#118=VECTOR('',#733,10.);
#119=VECTOR('',#738,10.);
#120=VECTOR('',#741,10.);
#121=VECTOR('',#742,10.);
#122=VECTOR('',#743,10.);
#123=VECTOR('',#746,10.);
#124=VECTOR('',#747,10.);
#125=VECTOR('',#750,10.);
#126=VECTOR('',#753,10.);
#127=VECTOR('',#758,10.);
#128=VECTOR('',#759,10.);
#129=VECTOR('',#760,10.);
#130=VECTOR('',#765,10.);
#131=VECTOR('',#768,10.);
#132=VECTOR('',#769,10.);
#133=VECTOR('',#774,10.);
#134=VECTOR('',#777,10.);
#135=VECTOR('',#778,10.);
#136=VECTOR('',#785,10.);
#137=VECTOR('',#788,10.);
#138=VECTOR('',#789,10.);
#139=VECTOR('',#790,10.);
#140=VECTOR('',#791,10.);
#141=VECTOR('',#794,10.);
#142=VECTOR('',#795,10.);
#143=VECTOR('',#798,10.);
#144=VECTOR('',#801,10.);
#145=VECTOR('',#806,10.);
#146=VECTOR('',#807,10.);
#147=VECTOR('',#808,10.);
#148=VECTOR('',#811,10.);
#149=VECTOR('',#812,10.);
#150=VECTOR('',#819,10.);
#151=VECTOR('',#820,10.);
#152=VECTOR('',#821,10.);
#153=VECTOR('',#824,10.);
#154=VECTOR('',#825,10.);
#155=CYLINDRICAL_SURFACE('',#622,1.4);
#156=CYLINDRICAL_SURFACE('',#628,2.55);
#157=CYLINDRICAL_SURFACE('',#631,0.750000000000001);
#158=CYLINDRICAL_SURFACE('',#634,0.75);
#159=CYLINDRICAL_SURFACE('',#636,0.75);
#160=CYLINDRICAL_SURFACE('',#644,5.00000000000001);
#161=CYLINDRICAL_SURFACE('',#647,4.99999999999999);
#162=CYLINDRICAL_SURFACE('',#650,5.00000000000001);
#163=FACE_BOUND('',#198,.T.);
#164=FACE_BOUND('',#201,.T.);
#165=FACE_BOUND('',#217,.T.);
#166=FACE_OUTER_BOUND('',#197,.T.);
#167=FACE_OUTER_BOUND('',#199,.T.);
#168=FACE_OUTER_BOUND('',#200,.T.);
#169=FACE_OUTER_BOUND('',#202,.T.);
#170=FACE_OUTER_BOUND('',#203,.T.);
#171=FACE_OUTER_BOUND('',#204,.T.);
#172=FACE_OUTER_BOUND('',#205,.T.);
#173=FACE_OUTER_BOUND('',#206,.T.);
#174=FACE_OUTER_BOUND('',#207,.T.);
#175=FACE_OUTER_BOUND('',#208,.T.);
#176=FACE_OUTER_BOUND('',#209,.T.);
#177=FACE_OUTER_BOUND('',#210,.T.);
#178=FACE_OUTER_BOUND('',#211,.T.);
#179=FACE_OUTER_BOUND('',#212,.T.);
#180=FACE_OUTER_BOUND('',#213,.T.);
#181=FACE_OUTER_BOUND('',#214,.T.);
#182=FACE_OUTER_BOUND('',#215,.T.);
#183=FACE_OUTER_BOUND('',#216,.T.);
#184=FACE_OUTER_BOUND('',#218,.T.);
#185=FACE_OUTER_BOUND('',#219,.T.);
#186=FACE_OUTER_BOUND('',#220,.T.);
#187=FACE_OUTER_BOUND('',#221,.T.);
#188=FACE_OUTER_BOUND('',#222,.T.);
#189=FACE_OUTER_BOUND('',#223,.T.);
#190=FACE_OUTER_BOUND('',#224,.T.);
#191=FACE_OUTER_BOUND('',#225,.T.);
#192=FACE_OUTER_BOUND('',#226,.T.);
#193=FACE_OUTER_BOUND('',#227,.T.);
#194=FACE_OUTER_BOUND('',#228,.T.);
#195=FACE_OUTER_BOUND('',#229,.T.);
#196=FACE_OUTER_BOUND('',#230,.T.);
#197=EDGE_LOOP('',(#383));
#198=EDGE_LOOP('',(#384));
#199=EDGE_LOOP('',(#385,#386,#387,#388));
#200=EDGE_LOOP('',(#389,#390,#391,#392,#393,#394,#395,#396,#397,#398,#399,
#400,#401,#402,#403,#404,#405,#406));
#201=EDGE_LOOP('',(#407));
#202=EDGE_LOOP('',(#408,#409,#410,#411));
#203=EDGE_LOOP('',(#412,#413,#414,#415,#416,#417,#418,#419,#420,#421));
#204=EDGE_LOOP('',(#422,#423,#424,#425));
#205=EDGE_LOOP('',(#426,#427,#428,#429,#430,#431,#432,#433));
#206=EDGE_LOOP('',(#434,#435,#436,#437));
#207=EDGE_LOOP('',(#438,#439,#440,#441));
#208=EDGE_LOOP('',(#442,#443,#444,#445));
#209=EDGE_LOOP('',(#446,#447,#448,#449,#450,#451,#452,#453,#454,#455));
#210=EDGE_LOOP('',(#456,#457,#458,#459));
#211=EDGE_LOOP('',(#460,#461,#462,#463));
#212=EDGE_LOOP('',(#464,#465,#466,#467));
#213=EDGE_LOOP('',(#468,#469,#470,#471));
#214=EDGE_LOOP('',(#472,#473,#474,#475));
#215=EDGE_LOOP('',(#476,#477,#478,#479));
#216=EDGE_LOOP('',(#480,#481,#482,#483,#484,#485,#486,#487,#488,#489,#490,
#491));
#217=EDGE_LOOP('',(#492));
#218=EDGE_LOOP('',(#493,#494,#495,#496));
#219=EDGE_LOOP('',(#497,#498,#499,#500));
#220=EDGE_LOOP('',(#501,#502,#503,#504));
#221=EDGE_LOOP('',(#505,#506,#507,#508,#509,#510,#511,#512,#513,#514));
#222=EDGE_LOOP('',(#515,#516,#517,#518));
#223=EDGE_LOOP('',(#519,#520,#521,#522));
#224=EDGE_LOOP('',(#523,#524,#525,#526));
#225=EDGE_LOOP('',(#527,#528,#529,#530));
#226=EDGE_LOOP('',(#531,#532,#533,#534));
#227=EDGE_LOOP('',(#535,#536,#537,#538));
#228=EDGE_LOOP('',(#539,#540,#541,#542));
#229=EDGE_LOOP('',(#543,#544,#545,#546));
#230=EDGE_LOOP('',(#547,#548,#549,#550));
#231=CIRCLE('',#620,2.55);
#232=CIRCLE('',#621,1.4);
#233=CIRCLE('',#623,1.4);
#234=CIRCLE('',#625,0.75);
#235=CIRCLE('',#626,0.75);
#236=CIRCLE('',#627,0.750000000000001);
#237=CIRCLE('',#640,5.00000000000001);
#238=CIRCLE('',#641,4.99999999999999);
#239=CIRCLE('',#642,5.00000000000001);
#240=CIRCLE('',#645,5.00000000000001);
#241=CIRCLE('',#648,4.99999999999999);
#242=CIRCLE('',#651,5.00000000000001);
#243=VERTEX_POINT('',#832);
#244=VERTEX_POINT('',#834);
#245=VERTEX_POINT('',#837);
#246=VERTEX_POINT('',#841);
#247=VERTEX_POINT('',#842);
#248=VERTEX_POINT('',#844);
#249=VERTEX_POINT('',#846);
#250=VERTEX_POINT('',#848);
#251=VERTEX_POINT('',#850);
#252=VERTEX_POINT('',#852);
#253=VERTEX_POINT('',#854);
#254=VERTEX_POINT('',#856);
#255=VERTEX_POINT('',#858);
#256=VERTEX_POINT('',#860);
#257=VERTEX_POINT('',#862);
#258=VERTEX_POINT('',#864);
#259=VERTEX_POINT('',#866);
#260=VERTEX_POINT('',#868);
#261=VERTEX_POINT('',#870);
#262=VERTEX_POINT('',#872);
#263=VERTEX_POINT('',#874);
#264=VERTEX_POINT('',#878);
#265=VERTEX_POINT('',#882);
#266=VERTEX_POINT('',#883);
#267=VERTEX_POINT('',#886);
#268=VERTEX_POINT('',#888);
#269=VERTEX_POINT('',#891);
#270=VERTEX_POINT('',#893);
#271=VERTEX_POINT('',#897);
#272=VERTEX_POINT('',#901);
#273=VERTEX_POINT('',#904);
#274=VERTEX_POINT('',#906);
#275=VERTEX_POINT('',#910);
#276=VERTEX_POINT('',#914);
#277=VERTEX_POINT('',#918);
#278=VERTEX_POINT('',#920);
#279=VERTEX_POINT('',#924);
#280=VERTEX_POINT('',#926);
#281=VERTEX_POINT('',#928);
#282=VERTEX_POINT('',#930);
#283=VERTEX_POINT('',#932);
#284=VERTEX_POINT('',#934);
#285=VERTEX_POINT('',#938);
#286=VERTEX_POINT('',#940);
#287=VERTEX_POINT('',#944);
#288=VERTEX_POINT('',#948);
#289=VERTEX_POINT('',#952);
#290=VERTEX_POINT('',#956);
#291=VERTEX_POINT('',#964);
#292=VERTEX_POINT('',#965);
#293=VERTEX_POINT('',#967);
#294=VERTEX_POINT('',#969);
#295=VERTEX_POINT('',#981);
#296=VERTEX_POINT('',#983);
#297=VERTEX_POINT('',#992);
#298=VERTEX_POINT('',#994);
#299=EDGE_CURVE('',#243,#243,#231,.T.);
#300=EDGE_CURVE('',#244,#244,#232,.T.);
#301=EDGE_CURVE('',#244,#245,#19,.T.);
#302=EDGE_CURVE('',#245,#245,#233,.T.);
#303=EDGE_CURVE('',#246,#247,#20,.T.);
#304=EDGE_CURVE('',#247,#248,#21,.T.);
#305=EDGE_CURVE('',#249,#248,#22,.T.);
#306=EDGE_CURVE('',#249,#250,#234,.T.);
#307=EDGE_CURVE('',#250,#251,#23,.T.);
#308=EDGE_CURVE('',#251,#252,#24,.T.);
#309=EDGE_CURVE('',#252,#253,#25,.T.);
#310=EDGE_CURVE('',#253,#254,#26,.T.);
#311=EDGE_CURVE('',#254,#255,#27,.T.);
#312=EDGE_CURVE('',#255,#256,#235,.T.);
#313=EDGE_CURVE('',#257,#256,#28,.T.);
#314=EDGE_CURVE('',#257,#258,#29,.T.);
#315=EDGE_CURVE('',#258,#259,#30,.T.);
#316=EDGE_CURVE('',#259,#260,#31,.T.);
#317=EDGE_CURVE('',#261,#260,#32,.T.);
#318=EDGE_CURVE('',#261,#262,#236,.T.);
#319=EDGE_CURVE('',#263,#262,#33,.T.);
#320=EDGE_CURVE('',#263,#246,#34,.T.);
#321=EDGE_CURVE('',#243,#264,#35,.T.);
#322=EDGE_CURVE('',#264,#264,#15,.T.);
#323=EDGE_CURVE('',#265,#266,#36,.T.);
#324=EDGE_CURVE('',#261,#266,#37,.T.);
#325=EDGE_CURVE('',#260,#267,#38,.T.);
#326=EDGE_CURVE('',#268,#267,#39,.T.);
#327=EDGE_CURVE('',#257,#268,#40,.T.);
#328=EDGE_CURVE('',#256,#269,#41,.T.);
#329=EDGE_CURVE('',#270,#269,#42,.T.);
#330=EDGE_CURVE('',#265,#270,#43,.T.);
#331=EDGE_CURVE('',#266,#271,#16,.T.);
#332=EDGE_CURVE('',#262,#271,#44,.T.);
#333=EDGE_CURVE('',#271,#272,#45,.T.);
#334=EDGE_CURVE('',#249,#272,#46,.T.);
#335=EDGE_CURVE('',#248,#273,#47,.T.);
#336=EDGE_CURVE('',#274,#273,#48,.T.);
#337=EDGE_CURVE('',#263,#274,#49,.T.);
#338=EDGE_CURVE('',#269,#275,#17,.T.);
#339=EDGE_CURVE('',#255,#275,#50,.T.);
#340=EDGE_CURVE('',#272,#276,#18,.T.);
#341=EDGE_CURVE('',#250,#276,#51,.T.);
#342=EDGE_CURVE('',#277,#270,#52,.T.);
#343=EDGE_CURVE('',#278,#277,#53,.T.);
#344=EDGE_CURVE('',#265,#278,#54,.T.);
#345=EDGE_CURVE('',#275,#279,#55,.T.);
#346=EDGE_CURVE('',#279,#280,#56,.T.);
#347=EDGE_CURVE('',#280,#281,#237,.T.);
#348=EDGE_CURVE('',#281,#282,#57,.T.);
#349=EDGE_CURVE('',#282,#283,#238,.T.);
#350=EDGE_CURVE('',#283,#284,#58,.T.);
#351=EDGE_CURVE('',#284,#277,#239,.T.);
#352=EDGE_CURVE('',#279,#285,#59,.T.);
#353=EDGE_CURVE('',#286,#285,#60,.T.);
#354=EDGE_CURVE('',#286,#280,#61,.T.);
#355=EDGE_CURVE('',#287,#278,#240,.T.);
#356=EDGE_CURVE('',#287,#284,#62,.T.);
#357=EDGE_CURVE('',#287,#288,#63,.T.);
#358=EDGE_CURVE('',#288,#283,#64,.T.);
#359=EDGE_CURVE('',#289,#288,#241,.T.);
#360=EDGE_CURVE('',#289,#282,#65,.T.);
#361=EDGE_CURVE('',#289,#290,#66,.T.);
#362=EDGE_CURVE('',#290,#281,#67,.T.);
#363=EDGE_CURVE('',#286,#290,#242,.T.);
#364=EDGE_CURVE('',#276,#285,#68,.T.);
#365=EDGE_CURVE('',#291,#292,#69,.T.);
#366=EDGE_CURVE('',#292,#293,#70,.T.);
#367=EDGE_CURVE('',#293,#294,#71,.T.);
#368=EDGE_CURVE('',#294,#291,#72,.T.);
#369=EDGE_CURVE('',#253,#294,#73,.T.);
#370=EDGE_CURVE('',#252,#291,#74,.T.);
#371=EDGE_CURVE('',#254,#293,#75,.T.);
#372=EDGE_CURVE('',#251,#292,#76,.T.);
#373=EDGE_CURVE('',#295,#268,#77,.T.);
#374=EDGE_CURVE('',#267,#296,#78,.T.);
#375=EDGE_CURVE('',#296,#295,#79,.T.);
#376=EDGE_CURVE('',#259,#296,#80,.T.);
#377=EDGE_CURVE('',#258,#295,#81,.T.);
#378=EDGE_CURVE('',#297,#274,#82,.T.);
#379=EDGE_CURVE('',#273,#298,#83,.T.);
#380=EDGE_CURVE('',#298,#297,#84,.T.);
#381=EDGE_CURVE('',#247,#298,#85,.T.);
#382=EDGE_CURVE('',#246,#297,#86,.T.);
#383=ORIENTED_EDGE('',*,*,#299,.F.);
#384=ORIENTED_EDGE('',*,*,#300,.T.);
#385=ORIENTED_EDGE('',*,*,#300,.F.);
#386=ORIENTED_EDGE('',*,*,#301,.T.);
#387=ORIENTED_EDGE('',*,*,#302,.F.);
#388=ORIENTED_EDGE('',*,*,#301,.F.);
#389=ORIENTED_EDGE('',*,*,#303,.T.);
#390=ORIENTED_EDGE('',*,*,#304,.T.);
#391=ORIENTED_EDGE('',*,*,#305,.F.);
#392=ORIENTED_EDGE('',*,*,#306,.T.);
#393=ORIENTED_EDGE('',*,*,#307,.T.);
#394=ORIENTED_EDGE('',*,*,#308,.T.);
#395=ORIENTED_EDGE('',*,*,#309,.T.);
#396=ORIENTED_EDGE('',*,*,#310,.T.);
#397=ORIENTED_EDGE('',*,*,#311,.T.);
#398=ORIENTED_EDGE('',*,*,#312,.T.);
#399=ORIENTED_EDGE('',*,*,#313,.F.);
#400=ORIENTED_EDGE('',*,*,#314,.T.);
#401=ORIENTED_EDGE('',*,*,#315,.T.);
#402=ORIENTED_EDGE('',*,*,#316,.T.);
#403=ORIENTED_EDGE('',*,*,#317,.F.);
#404=ORIENTED_EDGE('',*,*,#318,.T.);
#405=ORIENTED_EDGE('',*,*,#319,.F.);
#406=ORIENTED_EDGE('',*,*,#320,.T.);
#407=ORIENTED_EDGE('',*,*,#302,.T.);
#408=ORIENTED_EDGE('',*,*,#299,.T.);
#409=ORIENTED_EDGE('',*,*,#321,.T.);
#410=ORIENTED_EDGE('',*,*,#322,.F.);
#411=ORIENTED_EDGE('',*,*,#321,.F.);
#412=ORIENTED_EDGE('',*,*,#323,.T.);
#413=ORIENTED_EDGE('',*,*,#324,.F.);
#414=ORIENTED_EDGE('',*,*,#317,.T.);
#415=ORIENTED_EDGE('',*,*,#325,.T.);
#416=ORIENTED_EDGE('',*,*,#326,.F.);
#417=ORIENTED_EDGE('',*,*,#327,.F.);
#418=ORIENTED_EDGE('',*,*,#313,.T.);
#419=ORIENTED_EDGE('',*,*,#328,.T.);
#420=ORIENTED_EDGE('',*,*,#329,.F.);
#421=ORIENTED_EDGE('',*,*,#330,.F.);
#422=ORIENTED_EDGE('',*,*,#331,.T.);
#423=ORIENTED_EDGE('',*,*,#332,.F.);
#424=ORIENTED_EDGE('',*,*,#318,.F.);
#425=ORIENTED_EDGE('',*,*,#324,.T.);
#426=ORIENTED_EDGE('',*,*,#333,.T.);
#427=ORIENTED_EDGE('',*,*,#334,.F.);
#428=ORIENTED_EDGE('',*,*,#305,.T.);
#429=ORIENTED_EDGE('',*,*,#335,.T.);
#430=ORIENTED_EDGE('',*,*,#336,.F.);
#431=ORIENTED_EDGE('',*,*,#337,.F.);
#432=ORIENTED_EDGE('',*,*,#319,.T.);
#433=ORIENTED_EDGE('',*,*,#332,.T.);
#434=ORIENTED_EDGE('',*,*,#338,.F.);
#435=ORIENTED_EDGE('',*,*,#328,.F.);
#436=ORIENTED_EDGE('',*,*,#312,.F.);
#437=ORIENTED_EDGE('',*,*,#339,.T.);
#438=ORIENTED_EDGE('',*,*,#340,.T.);
#439=ORIENTED_EDGE('',*,*,#341,.F.);
#440=ORIENTED_EDGE('',*,*,#306,.F.);
#441=ORIENTED_EDGE('',*,*,#334,.T.);
#442=ORIENTED_EDGE('',*,*,#330,.T.);
#443=ORIENTED_EDGE('',*,*,#342,.F.);
#444=ORIENTED_EDGE('',*,*,#343,.F.);
#445=ORIENTED_EDGE('',*,*,#344,.F.);
#446=ORIENTED_EDGE('',*,*,#329,.T.);
#447=ORIENTED_EDGE('',*,*,#338,.T.);
#448=ORIENTED_EDGE('',*,*,#345,.T.);
#449=ORIENTED_EDGE('',*,*,#346,.T.);
#450=ORIENTED_EDGE('',*,*,#347,.T.);
#451=ORIENTED_EDGE('',*,*,#348,.T.);
#452=ORIENTED_EDGE('',*,*,#349,.T.);
#453=ORIENTED_EDGE('',*,*,#350,.T.);
#454=ORIENTED_EDGE('',*,*,#351,.T.);
#455=ORIENTED_EDGE('',*,*,#342,.T.);
#456=ORIENTED_EDGE('',*,*,#352,.T.);
#457=ORIENTED_EDGE('',*,*,#353,.F.);
#458=ORIENTED_EDGE('',*,*,#354,.T.);
#459=ORIENTED_EDGE('',*,*,#346,.F.);
#460=ORIENTED_EDGE('',*,*,#355,.T.);
#461=ORIENTED_EDGE('',*,*,#343,.T.);
#462=ORIENTED_EDGE('',*,*,#351,.F.);
#463=ORIENTED_EDGE('',*,*,#356,.F.);
#464=ORIENTED_EDGE('',*,*,#357,.F.);
#465=ORIENTED_EDGE('',*,*,#356,.T.);
#466=ORIENTED_EDGE('',*,*,#350,.F.);
#467=ORIENTED_EDGE('',*,*,#358,.F.);
#468=ORIENTED_EDGE('',*,*,#359,.T.);
#469=ORIENTED_EDGE('',*,*,#358,.T.);
#470=ORIENTED_EDGE('',*,*,#349,.F.);
#471=ORIENTED_EDGE('',*,*,#360,.F.);
#472=ORIENTED_EDGE('',*,*,#361,.F.);
#473=ORIENTED_EDGE('',*,*,#360,.T.);
#474=ORIENTED_EDGE('',*,*,#348,.F.);
#475=ORIENTED_EDGE('',*,*,#362,.F.);
#476=ORIENTED_EDGE('',*,*,#363,.T.);
#477=ORIENTED_EDGE('',*,*,#362,.T.);
#478=ORIENTED_EDGE('',*,*,#347,.F.);
#479=ORIENTED_EDGE('',*,*,#354,.F.);
#480=ORIENTED_EDGE('',*,*,#344,.T.);
#481=ORIENTED_EDGE('',*,*,#355,.F.);
#482=ORIENTED_EDGE('',*,*,#357,.T.);
#483=ORIENTED_EDGE('',*,*,#359,.F.);
#484=ORIENTED_EDGE('',*,*,#361,.T.);
#485=ORIENTED_EDGE('',*,*,#363,.F.);
#486=ORIENTED_EDGE('',*,*,#353,.T.);
#487=ORIENTED_EDGE('',*,*,#364,.F.);
#488=ORIENTED_EDGE('',*,*,#340,.F.);
#489=ORIENTED_EDGE('',*,*,#333,.F.);
#490=ORIENTED_EDGE('',*,*,#331,.F.);
#491=ORIENTED_EDGE('',*,*,#323,.F.);
#492=ORIENTED_EDGE('',*,*,#322,.T.);
#493=ORIENTED_EDGE('',*,*,#365,.T.);
#494=ORIENTED_EDGE('',*,*,#366,.T.);
#495=ORIENTED_EDGE('',*,*,#367,.T.);
#496=ORIENTED_EDGE('',*,*,#368,.T.);
#497=ORIENTED_EDGE('',*,*,#368,.F.);
#498=ORIENTED_EDGE('',*,*,#369,.F.);
#499=ORIENTED_EDGE('',*,*,#309,.F.);
#500=ORIENTED_EDGE('',*,*,#370,.T.);
#501=ORIENTED_EDGE('',*,*,#367,.F.);
#502=ORIENTED_EDGE('',*,*,#371,.F.);
#503=ORIENTED_EDGE('',*,*,#310,.F.);
#504=ORIENTED_EDGE('',*,*,#369,.T.);
#505=ORIENTED_EDGE('',*,*,#364,.T.);
#506=ORIENTED_EDGE('',*,*,#352,.F.);
#507=ORIENTED_EDGE('',*,*,#345,.F.);
#508=ORIENTED_EDGE('',*,*,#339,.F.);
#509=ORIENTED_EDGE('',*,*,#311,.F.);
#510=ORIENTED_EDGE('',*,*,#371,.T.);
#511=ORIENTED_EDGE('',*,*,#366,.F.);
#512=ORIENTED_EDGE('',*,*,#372,.F.);
#513=ORIENTED_EDGE('',*,*,#307,.F.);
#514=ORIENTED_EDGE('',*,*,#341,.T.);
#515=ORIENTED_EDGE('',*,*,#365,.F.);
#516=ORIENTED_EDGE('',*,*,#370,.F.);
#517=ORIENTED_EDGE('',*,*,#308,.F.);
#518=ORIENTED_EDGE('',*,*,#372,.T.);
#519=ORIENTED_EDGE('',*,*,#373,.T.);
#520=ORIENTED_EDGE('',*,*,#326,.T.);
#521=ORIENTED_EDGE('',*,*,#374,.T.);
#522=ORIENTED_EDGE('',*,*,#375,.T.);
#523=ORIENTED_EDGE('',*,*,#375,.F.);
#524=ORIENTED_EDGE('',*,*,#376,.F.);
#525=ORIENTED_EDGE('',*,*,#315,.F.);
#526=ORIENTED_EDGE('',*,*,#377,.T.);
#527=ORIENTED_EDGE('',*,*,#374,.F.);
#528=ORIENTED_EDGE('',*,*,#325,.F.);
#529=ORIENTED_EDGE('',*,*,#316,.F.);
#530=ORIENTED_EDGE('',*,*,#376,.T.);
#531=ORIENTED_EDGE('',*,*,#373,.F.);
#532=ORIENTED_EDGE('',*,*,#377,.F.);
#533=ORIENTED_EDGE('',*,*,#314,.F.);
#534=ORIENTED_EDGE('',*,*,#327,.T.);
#535=ORIENTED_EDGE('',*,*,#378,.T.);
#536=ORIENTED_EDGE('',*,*,#336,.T.);
#537=ORIENTED_EDGE('',*,*,#379,.T.);
#538=ORIENTED_EDGE('',*,*,#380,.T.);
#539=ORIENTED_EDGE('',*,*,#380,.F.);
#540=ORIENTED_EDGE('',*,*,#381,.F.);
#541=ORIENTED_EDGE('',*,*,#303,.F.);
#542=ORIENTED_EDGE('',*,*,#382,.T.);
#543=ORIENTED_EDGE('',*,*,#379,.F.);
#544=ORIENTED_EDGE('',*,*,#335,.F.);
#545=ORIENTED_EDGE('',*,*,#304,.F.);
#546=ORIENTED_EDGE('',*,*,#381,.T.);
#547=ORIENTED_EDGE('',*,*,#378,.F.);
#548=ORIENTED_EDGE('',*,*,#382,.F.);
#549=ORIENTED_EDGE('',*,*,#320,.F.);
#550=ORIENTED_EDGE('',*,*,#337,.T.);
#551=PLANE('',#619);
#552=PLANE('',#624);
#553=PLANE('',#630);
#554=PLANE('',#633);
#555=PLANE('',#638);
#556=PLANE('',#639);
#557=PLANE('',#643);
#558=PLANE('',#646);
#559=PLANE('',#649);
#560=PLANE('',#652);
#561=PLANE('',#653);
#562=PLANE('',#654);
#563=PLANE('',#655);
#564=PLANE('',#656);
#565=PLANE('',#657);
#566=PLANE('',#658);
#567=PLANE('',#659);
#568=PLANE('',#660);
#569=PLANE('',#661);
#570=PLANE('',#662);
#571=PLANE('',#663);
#572=PLANE('',#664);
#573=PLANE('',#665);
#574=ADVANCED_FACE('',(#166,#163),#551,.F.);
#575=ADVANCED_FACE('',(#167),#155,.F.);
#576=ADVANCED_FACE('',(#168,#164),#552,.T.);
#577=ADVANCED_FACE('',(#169),#156,.F.);
#578=ADVANCED_FACE('',(#170),#553,.T.);
#579=ADVANCED_FACE('',(#171),#157,.T.);
#580=ADVANCED_FACE('',(#172),#554,.T.);
#581=ADVANCED_FACE('',(#173),#158,.T.);
#582=ADVANCED_FACE('',(#174),#159,.T.);
#583=ADVANCED_FACE('',(#175),#555,.T.);
#584=ADVANCED_FACE('',(#176),#556,.T.);
#585=ADVANCED_FACE('',(#177),#557,.T.);
#586=ADVANCED_FACE('',(#178),#160,.T.);
#587=ADVANCED_FACE('',(#179),#558,.T.);
#588=ADVANCED_FACE('',(#180),#161,.T.);
#589=ADVANCED_FACE('',(#181),#559,.T.);
#590=ADVANCED_FACE('',(#182),#162,.T.);
#591=ADVANCED_FACE('',(#183,#165),#560,.F.);
#592=ADVANCED_FACE('',(#184),#561,.T.);
#593=ADVANCED_FACE('',(#185),#562,.T.);
#594=ADVANCED_FACE('',(#186),#563,.T.);
#595=ADVANCED_FACE('',(#187),#564,.T.);
#596=ADVANCED_FACE('',(#188),#565,.T.);
#597=ADVANCED_FACE('',(#189),#566,.T.);
#598=ADVANCED_FACE('',(#190),#567,.T.);
#599=ADVANCED_FACE('',(#191),#568,.T.);
#600=ADVANCED_FACE('',(#192),#569,.T.);
#601=ADVANCED_FACE('',(#193),#570,.T.);
#602=ADVANCED_FACE('',(#194),#571,.T.);
#603=ADVANCED_FACE('',(#195),#572,.T.);
#604=ADVANCED_FACE('',(#196),#573,.T.);
#605=CLOSED_SHELL('',(#574,#575,#576,#577,#578,#579,#580,#581,#582,#583,
#584,#585,#586,#587,#588,#589,#590,#591,#592,#593,#594,#595,#596,#597,#598,
#599,#600,#601,#602,#603,#604));
#606=DERIVED_UNIT_ELEMENT(#608,1.);
#607=DERIVED_UNIT_ELEMENT(#1007,-3.);
#608=(
MASS_UNIT()
NAMED_UNIT(*)
SI_UNIT(.KILO.,.GRAM.)
);
#609=DERIVED_UNIT((#606,#607));
#610=MEASURE_REPRESENTATION_ITEM('density measure',
POSITIVE_RATIO_MEASURE(7850.),#609);
#611=PROPERTY_DEFINITION_REPRESENTATION(#616,#613);
#612=PROPERTY_DEFINITION_REPRESENTATION(#617,#614);
#613=REPRESENTATION('material name',(#615),#1004);
#614=REPRESENTATION('density',(#610),#1004);
#615=DESCRIPTIVE_REPRESENTATION_ITEM('\X2\94A2\X0\','\X2\94A2\X0\');
#616=PROPERTY_DEFINITION('material property','material name',#1014);
#617=PROPERTY_DEFINITION('material property','density of part',#1014);
#618=AXIS2_PLACEMENT_3D('',#830,#666,#667);
#619=AXIS2_PLACEMENT_3D('',#831,#668,#669);
#620=AXIS2_PLACEMENT_3D('',#833,#670,#671);
#621=AXIS2_PLACEMENT_3D('',#835,#672,#673);
#622=AXIS2_PLACEMENT_3D('',#836,#674,#675);
#623=AXIS2_PLACEMENT_3D('',#839,#677,#678);
#624=AXIS2_PLACEMENT_3D('',#840,#679,#680);
#625=AXIS2_PLACEMENT_3D('',#849,#684,#685);
#626=AXIS2_PLACEMENT_3D('',#861,#691,#692);
#627=AXIS2_PLACEMENT_3D('',#873,#698,#699);
#628=AXIS2_PLACEMENT_3D('',#877,#702,#703);
#629=AXIS2_PLACEMENT_3D('',#880,#705,#706);
#630=AXIS2_PLACEMENT_3D('',#881,#707,#708);
#631=AXIS2_PLACEMENT_3D('',#896,#717,#718);
#632=AXIS2_PLACEMENT_3D('',#898,#719,#720);
#633=AXIS2_PLACEMENT_3D('',#900,#722,#723);
#634=AXIS2_PLACEMENT_3D('',#909,#729,#730);
#635=AXIS2_PLACEMENT_3D('',#911,#731,#732);
#636=AXIS2_PLACEMENT_3D('',#913,#734,#735);
#637=AXIS2_PLACEMENT_3D('',#915,#736,#737);
#638=AXIS2_PLACEMENT_3D('',#917,#739,#740);
#639=AXIS2_PLACEMENT_3D('',#923,#744,#745);
#640=AXIS2_PLACEMENT_3D('',#929,#748,#749);
#641=AXIS2_PLACEMENT_3D('',#933,#751,#752);
#642=AXIS2_PLACEMENT_3D('',#936,#754,#755);
#643=AXIS2_PLACEMENT_3D('',#937,#756,#757);
#644=AXIS2_PLACEMENT_3D('',#943,#761,#762);
#645=AXIS2_PLACEMENT_3D('',#945,#763,#764);
#646=AXIS2_PLACEMENT_3D('',#947,#766,#767);
#647=AXIS2_PLACEMENT_3D('',#951,#770,#771);
#648=AXIS2_PLACEMENT_3D('',#953,#772,#773);
#649=AXIS2_PLACEMENT_3D('',#955,#775,#776);
#650=AXIS2_PLACEMENT_3D('',#959,#779,#780);
#651=AXIS2_PLACEMENT_3D('',#960,#781,#782);
#652=AXIS2_PLACEMENT_3D('',#961,#783,#784);
#653=AXIS2_PLACEMENT_3D('',#963,#786,#787);
#654=AXIS2_PLACEMENT_3D('',#972,#792,#793);
#655=AXIS2_PLACEMENT_3D('',#975,#796,#797);
#656=AXIS2_PLACEMENT_3D('',#977,#799,#800);
#657=AXIS2_PLACEMENT_3D('',#979,#802,#803);
#658=AXIS2_PLACEMENT_3D('',#980,#804,#805);
#659=AXIS2_PLACEMENT_3D('',#986,#809,#810);
#660=AXIS2_PLACEMENT_3D('',#989,#813,#814);
#661=AXIS2_PLACEMENT_3D('',#990,#815,#816);
#662=AXIS2_PLACEMENT_3D('',#991,#817,#818);
#663=AXIS2_PLACEMENT_3D('',#997,#822,#823);
#664=AXIS2_PLACEMENT_3D('',#1000,#826,#827);
#665=AXIS2_PLACEMENT_3D('',#1001,#828,#829);
#666=DIRECTION('axis',(0.,0.,1.));
#667=DIRECTION('refdir',(1.,0.,0.));
#668=DIRECTION('center_axis',(0.577350263454167,-0.577350272057355,0.577350272057355));
#669=DIRECTION('ref_axis',(0.707106786454903,0.707106775918192,-5.25881220245516E-18));
#670=DIRECTION('center_axis',(0.577350263454167,-0.577350272057355,0.577350272057355));
#671=DIRECTION('ref_axis',(0.707106786454903,0.707106775918192,-4.01795856322517E-17));
#672=DIRECTION('center_axis',(0.577350263454167,-0.577350272057355,0.577350272057355));
#673=DIRECTION('ref_axis',(0.707106786454903,0.707106775918192,-5.25881220245516E-18));
#674=DIRECTION('center_axis',(-0.577350263454167,0.577350272057355,-0.577350272057355));
#675=DIRECTION('ref_axis',(0.707106786454903,0.707106775918192,5.12778488441163E-17));
#676=DIRECTION('',(0.577350263454167,-0.577350272057355,0.577350272057355));
#677=DIRECTION('center_axis',(-0.577350263454167,0.577350272057355,-0.577350272057356));
#678=DIRECTION('ref_axis',(0.707106786454903,0.707106775918192,3.39934989721867E-17));
#679=DIRECTION('center_axis',(0.577350263454167,-0.577350272057355,0.577350272057355));
#680=DIRECTION('ref_axis',(0.707106786454903,0.,-0.707106775918192));
#681=DIRECTION('',(0.707106786454903,0.707106775918192,3.39934989721867E-17));
#682=DIRECTION('',(0.408248289449968,-0.408248295533341,-0.816496578899935));
#683=DIRECTION('',(-0.707106786454903,-0.707106775918192,-3.39934989721867E-17));
#684=DIRECTION('center_axis',(0.577350263454167,-0.577350272057355,0.577350272057356));
#685=DIRECTION('ref_axis',(0.408248289449968,-0.408248295533341,-0.816496578899935));
#686=DIRECTION('',(-0.707106782942666,7.02447455758204E-9,0.707106779430429));
#687=DIRECTION('',(-0.408248295533341,-0.816496578899935,-0.408248289449967));
#688=DIRECTION('',(-0.707106782942666,7.02447450207089E-9,0.707106779430429));
#689=DIRECTION('',(0.408248295533341,0.816496578899935,0.408248289449967));
#690=DIRECTION('',(-0.707106782942666,7.02447455758204E-9,0.707106779430429));
#691=DIRECTION('center_axis',(0.577350263454167,-0.577350272057355,0.577350272057356));
#692=DIRECTION('ref_axis',(0.40824829553334,0.816496578899935,0.408248289449968));
#693=DIRECTION('',(3.51223733430217E-9,0.707106782942666,0.707106779430429));
#694=DIRECTION('',(0.816496584983308,0.408248283366594,-0.408248289449967));
#695=DIRECTION('',(-3.51223727879102E-9,-0.707106782942666,-0.707106779430429));
#696=DIRECTION('',(-0.816496584983308,-0.408248283366594,0.408248289449967));
#697=DIRECTION('',(3.51223733430217E-9,0.707106782942666,0.707106779430429));
#698=DIRECTION('center_axis',(0.577350263454167,-0.577350272057355,0.577350272057356));
#699=DIRECTION('ref_axis',(-0.816496584983308,-0.408248283366595,0.408248289449967));
#700=DIRECTION('',(-0.707106786454903,-0.707106775918192,-3.39934989721867E-17));
#701=DIRECTION('',(-0.408248289449968,0.408248295533341,0.816496578899935));
#702=DIRECTION('center_axis',(-0.577350263454167,0.577350272057355,-0.577350272057356));
#703=DIRECTION('ref_axis',(0.707106786454903,0.707106775918192,-4.01795856322517E-17));
#704=DIRECTION('',(-0.577350263454167,0.577350272057355,-0.577350272057356));
#705=DIRECTION('center_axis',(0.,0.,1.));
#706=DIRECTION('ref_axis',(0.707106775918192,-0.707106786454903,0.));
#707=DIRECTION('center_axis',(-0.816496584983308,-0.408248283366594,0.408248289449968));
#708=DIRECTION('ref_axis',(-3.51223733430217E-9,-0.707106782942666,-0.707106779430429));
#709=DIRECTION('',(0.447213587503156,-0.894427194998317,0.));
#710=DIRECTION('',(-0.577350263454167,0.577350272057355,-0.577350272057355));
#711=DIRECTION('',(0.577350263454167,-0.577350272057355,0.577350272057355));
#712=DIRECTION('',(-3.51223721654523E-9,-0.707106782942666,-0.707106779430429));
#713=DIRECTION('',(0.577350263454167,-0.577350272057355,0.577350272057355));
#714=DIRECTION('',(-0.577350263454167,0.577350272057355,-0.577350272057355));
#715=DIRECTION('',(-0.447213587503156,0.894427194998317,0.));
#716=DIRECTION('',(0.447213592834358,0.,0.894427192332716));
#717=DIRECTION('center_axis',(-0.577350263454167,0.577350272057355,-0.577350272057356));
#718=DIRECTION('ref_axis',(-0.816496584983308,-0.408248283366595,0.408248289449967));
#719=DIRECTION('center_axis',(0.,0.,1.));
#720=DIRECTION('ref_axis',(-0.707106775918192,0.707106786454903,0.));
#721=DIRECTION('',(-0.577350263454167,0.577350272057355,-0.577350272057355));
#722=DIRECTION('center_axis',(0.408248289449968,-0.408248295533341,-0.816496578899935));
#723=DIRECTION('ref_axis',(0.707106786454903,0.707106775918192,3.39934989721867E-17));
#724=DIRECTION('',(0.707106786454903,0.707106775918192,0.));
#725=DIRECTION('',(-0.577350263454167,0.577350272057355,-0.577350272057355));
#726=DIRECTION('',(0.577350263454167,-0.577350272057355,0.577350272057355));
#727=DIRECTION('',(0.707106786454903,0.707106775918192,-5.25881161755018E-18));
#728=DIRECTION('',(0.577350263454167,-0.577350272057355,0.577350272057355));
#729=DIRECTION('center_axis',(-0.577350263454167,0.577350272057355,-0.577350272057356));
#730=DIRECTION('ref_axis',(0.40824829553334,0.816496578899935,0.408248289449968));
#731=DIRECTION('center_axis',(0.,0.,-1.));
#732=DIRECTION('ref_axis',(-0.707106775918192,0.707106786454903,0.));
#733=DIRECTION('',(-0.577350263454167,0.577350272057355,-0.577350272057355));
#734=DIRECTION('center_axis',(-0.577350263454167,0.577350272057355,-0.577350272057356));
#735=DIRECTION('ref_axis',(0.408248289449968,-0.408248295533341,-0.816496578899935));
#736=DIRECTION('center_axis',(0.,0.,1.));
#737=DIRECTION('ref_axis',(0.707106775918192,-0.707106786454903,0.));
#738=DIRECTION('',(-0.577350263454167,0.577350272057355,-0.577350272057355));
#739=DIRECTION('center_axis',(0.,-1.,0.));
#740=DIRECTION('ref_axis',(1.,0.,0.));
#741=DIRECTION('',(1.,0.,0.));
#742=DIRECTION('',(0.,0.,1.));
#743=DIRECTION('',(-1.,0.,0.));
#744=DIRECTION('center_axis',(0.,0.,1.));
#745=DIRECTION('ref_axis',(1.,0.,0.));
#746=DIRECTION('',(0.894427188334315,-0.447213600831159,0.));
#747=DIRECTION('',(0.,1.,0.));
#748=DIRECTION('center_axis',(0.,0.,1.));
#749=DIRECTION('ref_axis',(1.,0.,0.));
#750=DIRECTION('',(-1.,0.,0.));
#751=DIRECTION('center_axis',(0.,0.,1.));
#752=DIRECTION('ref_axis',(1.77635683940025E-15,1.,0.));
#753=DIRECTION('',(0.,-1.,0.));
#754=DIRECTION('center_axis',(0.,0.,1.));
#755=DIRECTION('ref_axis',(-1.,1.52655665885959E-16,0.));
#756=DIRECTION('center_axis',(1.,0.,0.));
#757=DIRECTION('ref_axis',(0.,1.,0.));
#758=DIRECTION('',(0.,0.447213595499958,-0.894427190999916));
#759=DIRECTION('',(0.,-1.,0.));
#760=DIRECTION('',(0.,0.,1.));
#761=DIRECTION('center_axis',(0.,0.,1.));
#762=DIRECTION('ref_axis',(-1.,1.52655665885959E-16,0.));
#763=DIRECTION('center_axis',(0.,0.,1.));
#764=DIRECTION('ref_axis',(-1.,1.52655665885959E-16,0.));
#765=DIRECTION('',(0.,0.,1.));
#766=DIRECTION('center_axis',(-1.,0.,0.));
#767=DIRECTION('ref_axis',(0.,-1.,0.));
#768=DIRECTION('',(0.,1.,0.));
#769=DIRECTION('',(0.,0.,1.));
#770=DIRECTION('center_axis',(0.,0.,1.));
#771=DIRECTION('ref_axis',(1.77635683940025E-15,1.,0.));
#772=DIRECTION('center_axis',(0.,0.,1.));
#773=DIRECTION('ref_axis',(1.77635683940025E-15,1.,0.));
#774=DIRECTION('',(0.,0.,1.));
#775=DIRECTION('center_axis',(0.,1.,0.));
#776=DIRECTION('ref_axis',(-1.,0.,0.));
#777=DIRECTION('',(1.,0.,0.));
#778=DIRECTION('',(0.,0.,1.));
#779=DIRECTION('center_axis',(0.,0.,1.));
#780=DIRECTION('ref_axis',(1.,0.,0.));
#781=DIRECTION('center_axis',(0.,0.,1.));
#782=DIRECTION('ref_axis',(1.,0.,0.));
#783=DIRECTION('center_axis',(0.,0.,1.));
#784=DIRECTION('ref_axis',(1.,0.,0.));
#785=DIRECTION('',(-0.894427188334315,0.447213600831159,0.));
#786=DIRECTION('center_axis',(0.119573148228806,-0.985598560247415,0.119573158613774));
#787=DIRECTION('ref_axis',(0.,-0.120437248464637,-0.992720942250272));
#788=DIRECTION('',(0.696923424587756,0.169101975264107,0.696923426369535));
#789=DIRECTION('',(-0.707106782942666,7.02447451832973E-9,0.707106779430429));
#790=DIRECTION('',(-0.696923424587756,-0.169101975264107,-0.696923426369535));
#791=DIRECTION('',(0.707106782942666,-7.02447450207089E-9,-0.707106779430429));
#792=DIRECTION('center_axis',(-0.408248295533341,-0.816496578899935,-0.408248289449967));
#793=DIRECTION('ref_axis',(0.707106782942666,-7.02447450207089E-9,-0.707106779430429));
#794=DIRECTION('',(0.577350263454167,-0.577350272057355,0.577350272057355));
#795=DIRECTION('',(0.577350263454167,-0.577350272057355,0.577350272057355));
#796=DIRECTION('center_axis',(-0.707106782942666,7.02447428002628E-9,0.707106779430429));
#797=DIRECTION('ref_axis',(-0.408248295533341,-0.816496578899935,-0.408248289449967));
#798=DIRECTION('',(0.577350263454167,-0.577350272057355,0.577350272057355));
#799=DIRECTION('center_axis',(0.408248295533341,0.816496578899935,0.408248289449967));
#800=DIRECTION('ref_axis',(-0.707106782942666,7.02447455758204E-9,0.707106779430429));
#801=DIRECTION('',(0.577350263454167,-0.577350272057355,0.577350272057355));
#802=DIRECTION('center_axis',(0.707106782942666,-7.02447428002628E-9,-0.707106779430429));
#803=DIRECTION('ref_axis',(0.408248295533341,0.816496578899935,0.408248289449967));
#804=DIRECTION('center_axis',(0.985598558465636,-0.119573162915367,0.119573158613773));
#805=DIRECTION('ref_axis',(0.120437248679206,0.,-0.99272094222424));
#806=DIRECTION('',(-0.169101985649073,-0.69692342206794,0.696923426369535));
#807=DIRECTION('',(0.169101985649073,0.69692342206794,-0.696923426369535));
#808=DIRECTION('',(3.5122371779552E-9,0.707106782942666,0.707106779430429));
#809=DIRECTION('center_axis',(0.816496584983308,0.408248283366594,-0.408248289449968));
#810=DIRECTION('ref_axis',(3.51223727879102E-9,0.707106782942666,0.707106779430429));
#811=DIRECTION('',(0.577350263454167,-0.577350272057355,0.577350272057355));
#812=DIRECTION('',(0.577350263454167,-0.577350272057355,0.577350272057355));
#813=DIRECTION('center_axis',(-3.51223700123526E-9,-0.707106782942666,-0.707106779430429));
#814=DIRECTION('ref_axis',(0.816496584983308,0.408248283366594,-0.408248289449967));
#815=DIRECTION('center_axis',(3.51223700123526E-9,0.707106782942666,0.707106779430429));
#816=DIRECTION('ref_axis',(-0.816496584983308,-0.408248283366594,0.408248289449967));
#817=DIRECTION('center_axis',(0.119573152530402,-0.11957315431218,0.985598560247415));
#818=DIRECTION('ref_axis',(0.992720942982859,0.,-0.120437242426182));
#819=DIRECTION('',(0.696923420286161,-0.696923430671128,-0.169101975264108));
#820=DIRECTION('',(-0.696923420286161,0.696923430671128,0.169101975264108));
#821=DIRECTION('',(-0.707106786454903,-0.707106775918192,1.36908623294497E-16));
#822=DIRECTION('center_axis',(-0.408248289449968,0.408248295533341,0.816496578899935));
#823=DIRECTION('ref_axis',(-0.707106786454903,-0.707106775918192,-3.39934989721867E-17));
#824=DIRECTION('',(0.577350263454167,-0.577350272057355,0.577350272057355));
#825=DIRECTION('',(0.577350263454167,-0.577350272057355,0.577350272057355));
#826=DIRECTION('center_axis',(0.707106786454903,0.707106775918192,-1.94289029309402E-16));
#827=DIRECTION('ref_axis',(-0.408248289449968,0.408248295533341,0.816496578899935));
#828=DIRECTION('center_axis',(-0.707106786454903,-0.707106775918192,1.94289029309402E-16));
#829=DIRECTION('ref_axis',(0.408248289449968,-0.408248295533341,-0.816496578899935));
#830=CARTESIAN_POINT('',(0.,0.,0.));
#831=CARTESIAN_POINT('Origin',(4.13397460481875,-4.13397466641977,4.13397466641977));
#832=CARTESIAN_POINT('',(2.33085229935875,-5.93709694501116,4.13397466641977));
#833=CARTESIAN_POINT('Origin',(4.13397460481875,-4.13397466641977,4.13397466641977));
#834=CARTESIAN_POINT('',(3.14402510378189,-5.12392415270524,4.13397466641977));
#835=CARTESIAN_POINT('Origin',(4.13397460481875,-4.13397466641977,4.13397466641977));
#836=CARTESIAN_POINT('Origin',(5.,-5.00000007450581,5.00000007450581));
#837=CARTESIAN_POINT('',(4.01005049896314,-5.98994956079127,5.00000007450581));
#838=CARTESIAN_POINT('',(4.01005049896314,-5.98994956079127,5.00000007450581));
#839=CARTESIAN_POINT('Origin',(5.,-5.00000007450581,5.00000007450581));
#840=CARTESIAN_POINT('Origin',(5.40824828944998,-5.40824837003914,4.18350349560587));
#841=CARTESIAN_POINT('',(4.6064071595126,-7.43483431075275,2.95875867288127));
#842=CARTESIAN_POINT('',(7.43483427372209,-4.60640723869011,2.95875867288127));
#843=CARTESIAN_POINT('',(4.6064071595126,-7.43483431075275,2.95875867288127));
#844=CARTESIAN_POINT('',(7.8430825859847,-5.0146555570361,2.14226204835603));
#845=CARTESIAN_POINT('',(7.43483427372209,-4.60640723869011,2.95875867288127));
#846=CARTESIAN_POINT('',(9.79691730674483,-3.06082080151497,2.14226211223146));
#847=CARTESIAN_POINT('',(6.42886898113718,-6.42886907693479,2.14226211223146));
#848=CARTESIAN_POINT('',(9.79691731130736,-2.14226214569001,3.06082076349388));
#849=CARTESIAN_POINT('Origin',(9.49073108965735,-2.75463457986496,2.75463454640641));
#850=CARTESIAN_POINT('',(7.84308256864191,-2.14226206240497,5.01465556032996));
#851=CARTESIAN_POINT('',(6.42886900242898,-2.14226211223145,6.42886905564298));
#852=CARTESIAN_POINT('',(7.43483425029592,-2.95875868693021,4.60640724806734));
#853=CARTESIAN_POINT('',(7.84308256864191,-2.14226206240497,5.01465556032996));
#854=CARTESIAN_POINT('',(4.60640715013538,-2.95875865883231,7.43483433417893));
#855=CARTESIAN_POINT('',(7.43483425029592,-2.95875868693021,4.60640724806734));
#856=CARTESIAN_POINT('',(5.01465546848137,-2.14226203430707,7.84308264644155));
#857=CARTESIAN_POINT('',(4.60640715013538,-2.95875865883231,7.43483433417893));
#858=CARTESIAN_POINT('',(3.06082069355061,-2.1422620787729,9.79691734779208));
#859=CARTESIAN_POINT('',(6.42886900242898,-2.14226211223145,6.42886905564298));
#860=CARTESIAN_POINT('',(2.14226203316312,-3.0608207254728,9.79691734779208));
#861=CARTESIAN_POINT('Origin',(2.7546344719006,-2.75463451294785,9.4907311307046));
#862=CARTESIAN_POINT('',(2.14226195958291,-5.01465553201367,7.84308261483142));
#863=CARTESIAN_POINT('',(2.14226201643385,-6.42886903435117,6.42886905564298));
#864=CARTESIAN_POINT('',(2.95875859019152,-4.60640722583443,7.4348343025688));
#865=CARTESIAN_POINT('',(2.14226195958291,-5.01465553201367,7.84308261483142));
#866=CARTESIAN_POINT('',(2.95875857614257,-7.43483432599496,4.60640721645722));
#867=CARTESIAN_POINT('',(2.95875859019152,-4.60640722583443,7.4348343025688));
#868=CARTESIAN_POINT('',(2.14226194553396,-7.84308263217421,5.01465552871983));
#869=CARTESIAN_POINT('',(2.95875857614257,-7.43483432599496,4.60640721645722));
#870=CARTESIAN_POINT('',(2.14226199970457,-9.79691734322955,3.06082076349388));
#871=CARTESIAN_POINT('',(2.14226201643385,-6.42886903435117,6.42886905564298));
#872=CARTESIAN_POINT('',(3.06082065552953,-9.79691735235461,2.14226211223146));
#873=CARTESIAN_POINT('Origin',(2.75463443844205,-9.4907311307046,2.75463454640641));
#874=CARTESIAN_POINT('',(5.01465547177522,-7.84308262909875,2.14226204835603));
#875=CARTESIAN_POINT('',(6.42886898113718,-6.42886907693479,2.14226211223146));
#876=CARTESIAN_POINT('',(5.01465547177522,-7.84308262909875,2.14226204835603));
#877=CARTESIAN_POINT('Origin',(5.,-5.00000007450581,5.00000007450581));
#878=CARTESIAN_POINT('',(-1.80312230546,-1.80312227859139,0.));
#879=CARTESIAN_POINT('',(3.19687769454,-6.8031223530972,5.00000007450581));
#880=CARTESIAN_POINT('Origin',(-1.11022302462516E-15,-1.11022302462516E-15,
0.));
#881=CARTESIAN_POINT('Origin',(2.14226195958291,-5.01465553201367,7.84308261483142));
#882=CARTESIAN_POINT('',(-1.78660698864498,-5.,0.));
#883=CARTESIAN_POINT('',(-0.918558718179533,-6.73609657973567,0.));
#884=CARTESIAN_POINT('',(-2.31212837242286,-3.94895740057784,0.));
#885=CARTESIAN_POINT('',(2.14226199970457,-9.79691734322955,3.06082076349388));
#886=CARTESIAN_POINT('',(3.602958112073,-9.30377882047932,6.47535171702494));
#887=CARTESIAN_POINT('',(2.14226194553396,-7.84308263217421,5.01465552871983));
#888=CARTESIAN_POINT('',(3.60295812612195,-6.47535172031878,9.30377880313653));
#889=CARTESIAN_POINT('',(3.602958112073,-9.30377882047932,6.47535171702494));
#890=CARTESIAN_POINT('',(2.14226195958291,-5.01465553201367,7.84308261483142));
#891=CARTESIAN_POINT('',(-6.15465519099526,5.23609662231928,1.5));
#892=CARTESIAN_POINT('',(2.14226203316312,-3.0608207254728,9.79691734779208));
#893=CARTESIAN_POINT('',(-1.03660699423291,-5.,1.5));
#894=CARTESIAN_POINT('',(-5.90567583177744,4.73813789275339,1.5));
#895=CARTESIAN_POINT('',(-4.10289520607347,-5.,-4.63257646937236));
#896=CARTESIAN_POINT('Origin',(2.75463443844205,-9.4907311307046,2.75463454640641));
#897=CARTESIAN_POINT('',(0.918558575220263,-7.65465524012315,-2.77555756156289E-16));
#898=CARTESIAN_POINT('Origin',(-6.69171046352446E-8,-6.7360965842982,0.));
#899=CARTESIAN_POINT('',(3.06082065552953,-9.79691735235461,2.14226211223146));
#900=CARTESIAN_POINT('Origin',(5.01465547177522,-7.84308262909875,2.14226204835603));
#901=CARTESIAN_POINT('',(7.65465522643556,-0.91855868928351,-2.77555756156289E-16));
#902=CARTESIAN_POINT('',(3.70450022785386,-4.86871382062959,0.));
#903=CARTESIAN_POINT('',(9.79691730674483,-3.06082080151497,2.14226211223146));
#904=CARTESIAN_POINT('',(9.30377875252375,-6.47535174534121,3.60295823666114));
#905=CARTESIAN_POINT('',(7.8430825859847,-5.0146555570361,2.14226204835603));
#906=CARTESIAN_POINT('',(6.47535163831426,-9.30377881740385,3.60295823666114));
#907=CARTESIAN_POINT('',(9.30377875252375,-6.47535174534121,3.60295823666114));
#908=CARTESIAN_POINT('',(5.01465547177522,-7.84308262909875,2.14226204835603));
#909=CARTESIAN_POINT('Origin',(2.7546344719006,-2.75463451294785,9.4907311307046));
#910=CARTESIAN_POINT('',(-5.23609653060777,6.15465526901917,1.5));
#911=CARTESIAN_POINT('Origin',(-5.23609653973283,5.23609661775675,1.5));
#912=CARTESIAN_POINT('',(3.06082069355061,-2.1422620787729,9.79691734779208));
#913=CARTESIAN_POINT('Origin',(9.49073108965735,-2.75463457986496,2.75463454640641));
#914=CARTESIAN_POINT('',(6.73609659342325,0.918558617803874,0.));
#915=CARTESIAN_POINT('Origin',(6.73609658429819,-3.3458552595178E-8,0.));
#916=CARTESIAN_POINT('',(9.79691731130736,-2.14226214569001,3.06082076349388));
#917=CARTESIAN_POINT('Origin',(-35.,-5.,0.));
#918=CARTESIAN_POINT('',(-35.,-5.,1.5));
#919=CARTESIAN_POINT('',(-6.66133814775094E-15,-5.,1.5));
#920=CARTESIAN_POINT('',(-35.,-5.,0.));
#921=CARTESIAN_POINT('',(-35.,-5.,0.));
#922=CARTESIAN_POINT('',(-6.66133814775094E-15,-5.,0.));
#923=CARTESIAN_POINT('Origin',(-17.5,17.5,1.5));
#924=CARTESIAN_POINT('',(5.,1.03660692745043,1.5));
#925=CARTESIAN_POINT('',(-7.43257650133204,7.25289527074636,1.5));
#926=CARTESIAN_POINT('',(5.,35.,1.5));
#927=CARTESIAN_POINT('',(5.,35.,1.5));
#928=CARTESIAN_POINT('',(-6.66133814775094E-15,40.,1.5));
#929=CARTESIAN_POINT('Origin',(-6.66133814775094E-15,35.,1.5));
#930=CARTESIAN_POINT('',(-35.,40.,1.5));
#931=CARTESIAN_POINT('',(-35.,40.,1.5));
#932=CARTESIAN_POINT('',(-40.,35.,1.5));
#933=CARTESIAN_POINT('Origin',(-35.,35.,1.5));
#934=CARTESIAN_POINT('',(-40.,8.88178419700125E-15,1.5));
#935=CARTESIAN_POINT('',(-40.,9.64506252643105E-15,1.5));
#936=CARTESIAN_POINT('Origin',(-35.,8.88178419700125E-15,1.5));
#937=CARTESIAN_POINT('Origin',(5.,8.88178419700125E-15,0.));
#938=CARTESIAN_POINT('',(5.,1.78660692745043,0.));
#939=CARTESIAN_POINT('',(5.,-0.744324135475362,5.06186212585158));
#940=CARTESIAN_POINT('',(5.,35.,0.));
#941=CARTESIAN_POINT('',(5.,35.,0.));
#942=CARTESIAN_POINT('',(5.,35.,0.));
#943=CARTESIAN_POINT('Origin',(-35.,8.88178419700125E-15,0.));
#944=CARTESIAN_POINT('',(-40.,9.64506252643105E-15,0.));
#945=CARTESIAN_POINT('Origin',(-35.,8.88178419700125E-15,0.));
#946=CARTESIAN_POINT('',(-40.,9.64506252643105E-15,0.));
#947=CARTESIAN_POINT('Origin',(-40.,35.,0.));
#948=CARTESIAN_POINT('',(-40.,35.,0.));
#949=CARTESIAN_POINT('',(-40.,9.64506252643105E-15,0.));
#950=CARTESIAN_POINT('',(-40.,35.,0.));
#951=CARTESIAN_POINT('Origin',(-35.,35.,0.));
#952=CARTESIAN_POINT('',(-35.,40.,0.));
#953=CARTESIAN_POINT('Origin',(-35.,35.,0.));
#954=CARTESIAN_POINT('',(-35.,40.,0.));
#955=CARTESIAN_POINT('Origin',(-8.88178419700125E-15,40.,0.));
#956=CARTESIAN_POINT('',(-6.3551764479641E-15,40.,0.));
#957=CARTESIAN_POINT('',(-35.,40.,0.));
#958=CARTESIAN_POINT('',(-6.3551764479641E-15,40.,0.));
#959=CARTESIAN_POINT('Origin',(-6.66133814775094E-15,35.,0.));
#960=CARTESIAN_POINT('Origin',(-6.66133814775094E-15,35.,0.));
#961=CARTESIAN_POINT('Origin',(-17.5,17.5,0.));
#962=CARTESIAN_POINT('',(5.18032826222156,1.69644289080924,0.));
#963=CARTESIAN_POINT('Origin',(6.68965910775414,-3.72253142868325,8.10387275965245));
#964=CARTESIAN_POINT('',(8.31818015338079,-3.84210460317796,5.4897531643151));
#965=CARTESIAN_POINT('',(9.30377873518095,-3.60295825071008,6.47535174863507));
#966=CARTESIAN_POINT('',(8.18758834431495,-3.8737914888346,5.35916135491538));
#967=CARTESIAN_POINT('',(6.47535163502041,-3.60295822261218,9.30377883474666));
#968=CARTESIAN_POINT('',(6.47535163502041,-3.60295822261218,9.30377883474666));
#969=CARTESIAN_POINT('',(5.48975305322026,-3.84210457508007,8.31818025042669));
#970=CARTESIAN_POINT('',(5.60556089766994,-3.81400488068523,8.43398809517245));
#971=CARTESIAN_POINT('',(6.19685982826039,-3.84210458210454,7.61107347889879));
#972=CARTESIAN_POINT('Origin',(4.60640715013538,-2.95875865883231,7.43483433417893));
#973=CARTESIAN_POINT('',(4.60640715013538,-2.95875865883231,7.43483433417893));
#974=CARTESIAN_POINT('',(7.43483425029592,-2.95875868693021,4.60640724806734));
#975=CARTESIAN_POINT('Origin',(5.01465546848137,-2.14226203430707,7.84308264644155));
#976=CARTESIAN_POINT('',(5.01465546848137,-2.14226203430707,7.84308264644155));
#977=CARTESIAN_POINT('Origin',(7.84308256864191,-2.14226206240497,5.01465556032996));
#978=CARTESIAN_POINT('',(7.84308256864191,-2.14226206240497,5.01465556032996));
#979=CARTESIAN_POINT('Origin',(7.43483425029592,-2.95875868693021,4.60640724806734));
#980=CARTESIAN_POINT('Origin',(3.72253132197511,-8.10387274491456,6.68965918498653));
#981=CARTESIAN_POINT('',(3.84210449327639,-5.48975314208218,8.31818021881656));
#982=CARTESIAN_POINT('',(3.873791380879,-5.35916133348851,8.18758840941684));
#983=CARTESIAN_POINT('',(3.84210447922744,-8.31818024224272,5.48975313270497));
#984=CARTESIAN_POINT('',(3.81400478310693,-8.43398808627368,5.60556097745073));
#985=CARTESIAN_POINT('',(3.84210448273968,-7.61107346720258,6.19685990423287));
#986=CARTESIAN_POINT('Origin',(2.95875857614257,-7.43483432599496,4.60640721645722));
#987=CARTESIAN_POINT('',(2.95875857614257,-7.43483432599496,4.60640721645722));
#988=CARTESIAN_POINT('',(2.95875859019152,-4.60640722583443,7.4348343025688));
#989=CARTESIAN_POINT('Origin',(2.14226194553396,-7.84308263217421,5.01465552871983));
#990=CARTESIAN_POINT('Origin',(2.95875859019152,-4.60640722583442,7.4348343025688));
#991=CARTESIAN_POINT('Origin',(8.10387267470666,-6.68965920674887,3.72253143570774));
#992=CARTESIAN_POINT('',(5.48975306259748,-8.31818022700051,3.84210458912903));
#993=CARTESIAN_POINT('',(5.35916125433768,-8.18758841679474,3.87379147478567));
#994=CARTESIAN_POINT('',(8.31818017680696,-5.48975315493787,3.84210458912903));
#995=CARTESIAN_POINT('',(8.43398802054185,-5.60556100039843,3.81400489473419));
#996=CARTESIAN_POINT('',(7.61107339825459,-6.19685992295353,3.84210458912903));
#997=CARTESIAN_POINT('Origin',(7.43483427372209,-4.60640723869011,2.95875867288127));
#998=CARTESIAN_POINT('',(7.43483427372209,-4.60640723869011,2.95875867288127));
#999=CARTESIAN_POINT('',(4.6064071595126,-7.43483431075275,2.95875867288127));
#1000=CARTESIAN_POINT('Origin',(7.8430825859847,-5.0146555570361,2.14226204835603));
#1001=CARTESIAN_POINT('Origin',(4.6064071595126,-7.43483431075275,2.95875867288127));
#1002=UNCERTAINTY_MEASURE_WITH_UNIT(LENGTH_MEASURE(0.01),#1006,
'DISTANCE_ACCURACY_VALUE',
'Maximum model space distance between geometric entities at asserted c
onnectivities');
#1003=UNCERTAINTY_MEASURE_WITH_UNIT(LENGTH_MEASURE(0.01),#1006,
'DISTANCE_ACCURACY_VALUE',
'Maximum model space distance between geometric entities at asserted c
onnectivities');
#1004=(
GEOMETRIC_REPRESENTATION_CONTEXT(3)
GLOBAL_UNCERTAINTY_ASSIGNED_CONTEXT((#1002))
GLOBAL_UNIT_ASSIGNED_CONTEXT((#1006,#1008,#1009))
REPRESENTATION_CONTEXT('','3D')
);
#1005=(
GEOMETRIC_REPRESENTATION_CONTEXT(3)
GLOBAL_UNCERTAINTY_ASSIGNED_CONTEXT((#1003))
GLOBAL_UNIT_ASSIGNED_CONTEXT((#1006,#1008,#1009))
REPRESENTATION_CONTEXT('','3D')
);
#1006=(
LENGTH_UNIT()
NAMED_UNIT(*)
SI_UNIT(.MILLI.,.METRE.)
);
#1007=(
LENGTH_UNIT()
NAMED_UNIT(*)
SI_UNIT($,.METRE.)
);
#1008=(
NAMED_UNIT(*)
PLANE_ANGLE_UNIT()
SI_UNIT($,.RADIAN.)
);
#1009=(
NAMED_UNIT(*)
SI_UNIT($,.STERADIAN.)
SOLID_ANGLE_UNIT()
);
#1010=SHAPE_DEFINITION_REPRESENTATION(#1011,#1012);
#1011=PRODUCT_DEFINITION_SHAPE('',$,#1014);
#1012=SHAPE_REPRESENTATION('',(#618),#1004);
#1013=PRODUCT_DEFINITION_CONTEXT('part definition',#1018,'design');
#1014=PRODUCT_DEFINITION('2025-11-16-18-54-49-191','(\X2\672A4FDD5B58\X0\)',
#1015,#1013);
#1015=PRODUCT_DEFINITION_FORMATION('',$,#1020);
#1016=PRODUCT_RELATED_PRODUCT_CATEGORY('(\X2\672A4FDD5B58\X0\)',
'(\X2\672A4FDD5B58\X0\)',(#1020));
#1017=APPLICATION_PROTOCOL_DEFINITION('international standard',
'automotive_design',2009,#1018);
#1018=APPLICATION_CONTEXT(
'Core Data for Automotive Mechanical Design Process');
#1019=PRODUCT_CONTEXT('part definition',#1018,'mechanical');
#1020=PRODUCT('2025-11-16-18-54-49-191','(\X2\672A4FDD5B58\X0\)',$,(#1019));
#1021=PRESENTATION_STYLE_ASSIGNMENT((#1022));
#1022=SURFACE_STYLE_USAGE(.BOTH.,#1023);
#1023=SURFACE_SIDE_STYLE('',(#1024));
#1024=SURFACE_STYLE_FILL_AREA(#1025);
#1025=FILL_AREA_STYLE('\X2\94A2\X0\ - \X2\7F0E5149\X0\',(#1026));
#1026=FILL_AREA_STYLE_COLOUR('\X2\94A2\X0\ - \X2\7F0E5149\X0\',#1027);
#1027=COLOUR_RGB('\X2\94A2\X0\ - \X2\7F0E5149\X0\',0.627450980392157,0.627450980392157,
0.627450980392157);
ENDSEC;
END-ISO-10303-21;
