ISO-10303-21;
HEADER;
/* Generated by software containing ST-Developer
 * from STEP Tools, Inc. (www.steptools.com) 
 */

FILE_DESCRIPTION(
/* description */ (''),
/* implementation_level */ '2;1');

FILE_NAME(
/* name */ 'joystick_mount.step',
/* time_stamp */ '2026-04-05T03:27:06-07:00',
/* author */ (''),
/* organization */ (''),
/* preprocessor_version */ 'ST-DEVELOPER v20.1',
/* originating_system */ 'Autodesk Translation Framework v14.24.0.0',
/* authorisation */ '');

FILE_SCHEMA (('AUTOMOTIVE_DESIGN { 1 0 10303 214 3 1 1 }'));
ENDSEC;

DATA;
#10=MECHANICAL_DESIGN_GEOMETRIC_PRESENTATION_REPRESENTATION('',(#13),#952);
#11=SHAPE_REPRESENTATION_RELATIONSHIP('SRR','None',#959,#12);
#12=ADVANCED_BREP_SHAPE_REPRESENTATION('',(#14),#951);
#13=STYLED_ITEM('',(#968),#14);
#14=MANIFOLD_SOLID_BREP('\X2\5B9E4F53\X0\4',#553);
#15=PLANE('',#594);
#16=PLANE('',#597);
#17=PLANE('',#600);
#18=PLANE('',#603);
#19=PLANE('',#607);
#20=PLANE('',#608);
#21=PLANE('',#609);
#22=PLANE('',#611);
#23=PLANE('',#613);
#24=PLANE('',#614);
#25=PLANE('',#615);
#26=PLANE('',#616);
#27=PLANE('',#617);
#28=PLANE('',#618);
#29=PLANE('',#619);
#30=PLANE('',#620);
#31=PLANE('',#622);
#32=ELLIPSE('',#593,0.636396128408686,0.45);
#33=TOROIDAL_SURFACE('',#570,0.55,0.45);
#34=TOROIDAL_SURFACE('',#576,2.45,0.45);
#35=TOROIDAL_SURFACE('',#582,2.45,0.45);
#36=TOROIDAL_SURFACE('',#588,0.55,0.45);
#37=FACE_OUTER_BOUND('',#68,.T.);
#38=FACE_OUTER_BOUND('',#69,.T.);
#39=FACE_OUTER_BOUND('',#70,.T.);
#40=FACE_OUTER_BOUND('',#71,.T.);
#41=FACE_OUTER_BOUND('',#72,.T.);
#42=FACE_OUTER_BOUND('',#73,.T.);
#43=FACE_OUTER_BOUND('',#74,.T.);
#44=FACE_OUTER_BOUND('',#75,.T.);
#45=FACE_OUTER_BOUND('',#76,.T.);
#46=FACE_OUTER_BOUND('',#77,.T.);
#47=FACE_OUTER_BOUND('',#78,.T.);
#48=FACE_OUTER_BOUND('',#79,.T.);
#49=FACE_OUTER_BOUND('',#80,.T.);
#50=FACE_OUTER_BOUND('',#81,.T.);
#51=FACE_OUTER_BOUND('',#82,.T.);
#52=FACE_OUTER_BOUND('',#83,.T.);
#53=FACE_OUTER_BOUND('',#84,.T.);
#54=FACE_OUTER_BOUND('',#85,.T.);
#55=FACE_OUTER_BOUND('',#86,.T.);
#56=FACE_OUTER_BOUND('',#87,.T.);
#57=FACE_OUTER_BOUND('',#88,.T.);
#58=FACE_OUTER_BOUND('',#89,.T.);
#59=FACE_OUTER_BOUND('',#90,.T.);
#60=FACE_OUTER_BOUND('',#91,.T.);
#61=FACE_OUTER_BOUND('',#92,.T.);
#62=FACE_OUTER_BOUND('',#93,.T.);
#63=FACE_OUTER_BOUND('',#94,.T.);
#64=FACE_OUTER_BOUND('',#95,.T.);
#65=FACE_OUTER_BOUND('',#96,.T.);
#66=FACE_OUTER_BOUND('',#97,.T.);
#67=FACE_OUTER_BOUND('',#98,.T.);
#68=EDGE_LOOP('',(#356,#357,#358,#359));
#69=EDGE_LOOP('',(#360,#361,#362,#363));
#70=EDGE_LOOP('',(#364,#365,#366,#367));
#71=EDGE_LOOP('',(#368,#369,#370,#371));
#72=EDGE_LOOP('',(#372,#373,#374,#375));
#73=EDGE_LOOP('',(#376,#377,#378,#379));
#74=EDGE_LOOP('',(#380,#381,#382,#383));
#75=EDGE_LOOP('',(#384,#385,#386,#387));
#76=EDGE_LOOP('',(#388,#389,#390,#391));
#77=EDGE_LOOP('',(#392,#393,#394,#395));
#78=EDGE_LOOP('',(#396,#397,#398,#399));
#79=EDGE_LOOP('',(#400,#401,#402,#403));
#80=EDGE_LOOP('',(#404,#405,#406,#407));
#81=EDGE_LOOP('',(#408,#409,#410,#411));
#82=EDGE_LOOP('',(#412,#413,#414,#415));
#83=EDGE_LOOP('',(#416,#417,#418,#419));
#84=EDGE_LOOP('',(#420,#421,#422,#423,#424,#425));
#85=EDGE_LOOP('',(#426,#427,#428,#429));
#86=EDGE_LOOP('',(#430,#431,#432,#433,#434));
#87=EDGE_LOOP('',(#435,#436,#437,#438,#439,#440,#441,#442,#443,#444,#445));
#88=EDGE_LOOP('',(#446,#447,#448,#449,#450,#451,#452,#453,#454,#455,#456,
#457,#458,#459,#460));
#89=EDGE_LOOP('',(#461,#462,#463,#464,#465,#466,#467,#468,#469,#470,#471));
#90=EDGE_LOOP('',(#472,#473,#474,#475));
#91=EDGE_LOOP('',(#476,#477,#478,#479));
#92=EDGE_LOOP('',(#480,#481,#482,#483));
#93=EDGE_LOOP('',(#484,#485,#486,#487));
#94=EDGE_LOOP('',(#488,#489,#490,#491,#492,#493,#494));
#95=EDGE_LOOP('',(#495,#496,#497,#498));
#96=EDGE_LOOP('',(#499,#500,#501,#502,#503));
#97=EDGE_LOOP('',(#504,#505,#506,#507));
#98=EDGE_LOOP('',(#508,#509,#510,#511));
#99=LINE('',#796,#152);
#100=LINE('',#799,#153);
#101=LINE('',#810,#154);
#102=LINE('',#811,#155);
#103=LINE('',#822,#156);
#104=LINE('',#823,#157);
#105=LINE('',#834,#158);
#106=LINE('',#835,#159);
#107=LINE('',#846,#160);
#108=LINE('',#847,#161);
#109=LINE('',#850,#162);
#110=LINE('',#852,#163);
#111=LINE('',#853,#164);
#112=LINE('',#856,#165);
#113=LINE('',#860,#166);
#114=LINE('',#861,#167);
#115=LINE('',#864,#168);
#116=LINE('',#868,#169);
#117=LINE('',#869,#170);
#118=LINE('',#872,#171);
#119=LINE('',#876,#172);
#120=LINE('',#877,#173);
#121=LINE('',#880,#174);
#122=LINE('',#884,#175);
#123=LINE('',#888,#176);
#124=LINE('',#889,#177);
#125=LINE('',#892,#178);
#126=LINE('',#894,#179);
#127=LINE('',#895,#180);
#128=LINE('',#900,#181);
#129=LINE('',#902,#182);
#130=LINE('',#904,#183);
#131=LINE('',#906,#184);
#132=LINE('',#908,#185);
#133=LINE('',#910,#186);
#134=LINE('',#911,#187);
#135=LINE('',#914,#188);
#136=LINE('',#916,#189);
#137=LINE('',#918,#190);
#138=LINE('',#920,#191);
#139=LINE('',#924,#192);
#140=LINE('',#926,#193);
#141=LINE('',#927,#194);
#142=LINE('',#929,#195);
#143=LINE('',#930,#196);
#144=LINE('',#932,#197);
#145=LINE('',#937,#198);
#146=LINE('',#938,#199);
#147=LINE('',#939,#200);
#148=LINE('',#941,#201);
#149=LINE('',#943,#202);
#150=LINE('',#945,#203);
#151=LINE('',#947,#204);
#152=VECTOR('',#629,10.);
#153=VECTOR('',#632,10.);
#154=VECTOR('',#645,10.);
#155=VECTOR('',#646,10.);
#156=VECTOR('',#659,10.);
#157=VECTOR('',#660,10.);
#158=VECTOR('',#673,10.);
#159=VECTOR('',#674,10.);
#160=VECTOR('',#687,10.);
#161=VECTOR('',#688,10.);
#162=VECTOR('',#691,10.);
#163=VECTOR('',#692,10.);
#164=VECTOR('',#693,10.);
#165=VECTOR('',#696,10.);
#166=VECTOR('',#701,10.);
#167=VECTOR('',#702,10.);
#168=VECTOR('',#705,10.);
#169=VECTOR('',#710,10.);
#170=VECTOR('',#711,10.);
#171=VECTOR('',#714,10.);
#172=VECTOR('',#719,10.);
#173=VECTOR('',#720,10.);
#174=VECTOR('',#723,10.);
#175=VECTOR('',#726,10.);
#176=VECTOR('',#731,10.);
#177=VECTOR('',#732,10.);
#178=VECTOR('',#735,10.);
#179=VECTOR('',#736,10.);
#180=VECTOR('',#737,10.);
#181=VECTOR('',#742,10.);
#182=VECTOR('',#743,10.);
#183=VECTOR('',#744,10.);
#184=VECTOR('',#745,10.);
#185=VECTOR('',#746,10.);
#186=VECTOR('',#747,10.);
#187=VECTOR('',#748,10.);
#188=VECTOR('',#751,10.);
#189=VECTOR('',#752,10.);
#190=VECTOR('',#753,10.);
#191=VECTOR('',#754,10.);
#192=VECTOR('',#759,10.);
#193=VECTOR('',#760,10.);
#194=VECTOR('',#761,10.);
#195=VECTOR('',#764,10.);
#196=VECTOR('',#765,10.);
#197=VECTOR('',#768,10.);
#198=VECTOR('',#773,10.);
#199=VECTOR('',#774,10.);
#200=VECTOR('',#775,10.);
#201=VECTOR('',#778,10.);
#202=VECTOR('',#781,10.);
#203=VECTOR('',#784,10.);
#204=VECTOR('',#787,10.);
#205=CIRCLE('',#568,0.45);
#206=CIRCLE('',#569,0.45);
#207=CIRCLE('',#571,0.450000000000002);
#208=CIRCLE('',#572,0.55);
#209=CIRCLE('',#573,1.);
#210=CIRCLE('',#575,0.449999999999999);
#211=CIRCLE('',#577,0.450000000000002);
#212=CIRCLE('',#578,2.45);
#213=CIRCLE('',#579,2.);
#214=CIRCLE('',#581,0.449999999999999);
#215=CIRCLE('',#583,0.449999999999997);
#216=CIRCLE('',#584,2.45);
#217=CIRCLE('',#585,2.);
#218=CIRCLE('',#587,0.449999999999999);
#219=CIRCLE('',#589,0.449999999999999);
#220=CIRCLE('',#590,0.55);
#221=CIRCLE('',#591,1.);
#222=CIRCLE('',#596,1.);
#223=CIRCLE('',#599,2.);
#224=CIRCLE('',#602,2.);
#225=CIRCLE('',#605,1.);
#226=CIRCLE('',#606,1.);
#227=CIRCLE('',#610,4.);
#228=CIRCLE('',#612,4.);
#229=VERTEX_POINT('',#792);
#230=VERTEX_POINT('',#793);
#231=VERTEX_POINT('',#795);
#232=VERTEX_POINT('',#797);
#233=VERTEX_POINT('',#801);
#234=VERTEX_POINT('',#802);
#235=VERTEX_POINT('',#807);
#236=VERTEX_POINT('',#808);
#237=VERTEX_POINT('',#813);
#238=VERTEX_POINT('',#814);
#239=VERTEX_POINT('',#819);
#240=VERTEX_POINT('',#820);
#241=VERTEX_POINT('',#825);
#242=VERTEX_POINT('',#826);
#243=VERTEX_POINT('',#831);
#244=VERTEX_POINT('',#832);
#245=VERTEX_POINT('',#837);
#246=VERTEX_POINT('',#838);
#247=VERTEX_POINT('',#843);
#248=VERTEX_POINT('',#844);
#249=VERTEX_POINT('',#849);
#250=VERTEX_POINT('',#851);
#251=VERTEX_POINT('',#855);
#252=VERTEX_POINT('',#859);
#253=VERTEX_POINT('',#863);
#254=VERTEX_POINT('',#867);
#255=VERTEX_POINT('',#871);
#256=VERTEX_POINT('',#875);
#257=VERTEX_POINT('',#879);
#258=VERTEX_POINT('',#881);
#259=VERTEX_POINT('',#883);
#260=VERTEX_POINT('',#887);
#261=VERTEX_POINT('',#891);
#262=VERTEX_POINT('',#893);
#263=VERTEX_POINT('',#897);
#264=VERTEX_POINT('',#899);
#265=VERTEX_POINT('',#901);
#266=VERTEX_POINT('',#903);
#267=VERTEX_POINT('',#905);
#268=VERTEX_POINT('',#907);
#269=VERTEX_POINT('',#909);
#270=VERTEX_POINT('',#913);
#271=VERTEX_POINT('',#915);
#272=VERTEX_POINT('',#917);
#273=VERTEX_POINT('',#919);
#274=VERTEX_POINT('',#923);
#275=VERTEX_POINT('',#925);
#276=VERTEX_POINT('',#935);
#277=VERTEX_POINT('',#936);
#278=EDGE_CURVE('',#229,#230,#205,.T.);
#279=EDGE_CURVE('',#230,#231,#99,.T.);
#280=EDGE_CURVE('',#231,#232,#206,.T.);
#281=EDGE_CURVE('',#232,#229,#100,.T.);
#282=EDGE_CURVE('',#233,#234,#207,.T.);
#283=EDGE_CURVE('',#234,#232,#208,.T.);
#284=EDGE_CURVE('',#231,#233,#209,.T.);
#285=EDGE_CURVE('',#235,#236,#210,.T.);
#286=EDGE_CURVE('',#236,#234,#101,.T.);
#287=EDGE_CURVE('',#233,#235,#102,.T.);
#288=EDGE_CURVE('',#237,#238,#211,.T.);
#289=EDGE_CURVE('',#238,#236,#212,.T.);
#290=EDGE_CURVE('',#235,#237,#213,.T.);
#291=EDGE_CURVE('',#239,#240,#214,.T.);
#292=EDGE_CURVE('',#240,#238,#103,.T.);
#293=EDGE_CURVE('',#237,#239,#104,.T.);
#294=EDGE_CURVE('',#241,#242,#215,.T.);
#295=EDGE_CURVE('',#242,#240,#216,.T.);
#296=EDGE_CURVE('',#239,#241,#217,.T.);
#297=EDGE_CURVE('',#243,#244,#218,.T.);
#298=EDGE_CURVE('',#244,#242,#105,.T.);
#299=EDGE_CURVE('',#241,#243,#106,.T.);
#300=EDGE_CURVE('',#245,#246,#219,.T.);
#301=EDGE_CURVE('',#246,#244,#220,.T.);
#302=EDGE_CURVE('',#243,#245,#221,.T.);
#303=EDGE_CURVE('',#247,#248,#32,.T.);
#304=EDGE_CURVE('',#247,#246,#107,.T.);
#305=EDGE_CURVE('',#245,#248,#108,.T.);
#306=EDGE_CURVE('',#249,#245,#109,.T.);
#307=EDGE_CURVE('',#250,#249,#110,.T.);
#308=EDGE_CURVE('',#250,#248,#111,.T.);
#309=EDGE_CURVE('',#243,#251,#112,.T.);
#310=EDGE_CURVE('',#251,#249,#222,.T.);
#311=EDGE_CURVE('',#252,#241,#113,.T.);
#312=EDGE_CURVE('',#251,#252,#114,.T.);
#313=EDGE_CURVE('',#239,#253,#115,.T.);
#314=EDGE_CURVE('',#253,#252,#223,.T.);
#315=EDGE_CURVE('',#254,#237,#116,.T.);
#316=EDGE_CURVE('',#253,#254,#117,.T.);
#317=EDGE_CURVE('',#235,#255,#118,.T.);
#318=EDGE_CURVE('',#255,#254,#224,.T.);
#319=EDGE_CURVE('',#256,#233,#119,.T.);
#320=EDGE_CURVE('',#255,#256,#120,.T.);
#321=EDGE_CURVE('',#231,#257,#121,.T.);
#322=EDGE_CURVE('',#257,#258,#225,.T.);
#323=EDGE_CURVE('',#258,#259,#122,.T.);
#324=EDGE_CURVE('',#259,#256,#226,.T.);
#325=EDGE_CURVE('',#260,#230,#123,.T.);
#326=EDGE_CURVE('',#260,#257,#124,.T.);
#327=EDGE_CURVE('',#261,#229,#125,.T.);
#328=EDGE_CURVE('',#262,#261,#126,.T.);
#329=EDGE_CURVE('',#262,#260,#127,.T.);
#330=EDGE_CURVE('',#263,#262,#227,.T.);
#331=EDGE_CURVE('',#264,#263,#128,.T.);
#332=EDGE_CURVE('',#265,#264,#129,.T.);
#333=EDGE_CURVE('',#265,#266,#130,.T.);
#334=EDGE_CURVE('',#266,#267,#131,.T.);
#335=EDGE_CURVE('',#268,#267,#132,.T.);
#336=EDGE_CURVE('',#269,#268,#133,.T.);
#337=EDGE_CURVE('',#258,#269,#134,.T.);
#338=EDGE_CURVE('',#270,#247,#135,.T.);
#339=EDGE_CURVE('',#270,#271,#136,.T.);
#340=EDGE_CURVE('',#271,#272,#137,.T.);
#341=EDGE_CURVE('',#272,#273,#138,.T.);
#342=EDGE_CURVE('',#273,#261,#228,.T.);
#343=EDGE_CURVE('',#274,#259,#139,.T.);
#344=EDGE_CURVE('',#275,#274,#140,.T.);
#345=EDGE_CURVE('',#250,#275,#141,.T.);
#346=EDGE_CURVE('',#268,#275,#142,.T.);
#347=EDGE_CURVE('',#267,#250,#143,.T.);
#348=EDGE_CURVE('',#269,#274,#144,.T.);
#349=EDGE_CURVE('',#276,#277,#145,.T.);
#350=EDGE_CURVE('',#266,#276,#146,.T.);
#351=EDGE_CURVE('',#277,#265,#147,.T.);
#352=EDGE_CURVE('',#276,#270,#148,.T.);
#353=EDGE_CURVE('',#271,#277,#149,.T.);
#354=EDGE_CURVE('',#264,#272,#150,.T.);
#355=EDGE_CURVE('',#263,#273,#151,.T.);
#356=ORIENTED_EDGE('',*,*,#278,.T.);
#357=ORIENTED_EDGE('',*,*,#279,.T.);
#358=ORIENTED_EDGE('',*,*,#280,.T.);
#359=ORIENTED_EDGE('',*,*,#281,.T.);
#360=ORIENTED_EDGE('',*,*,#282,.T.);
#361=ORIENTED_EDGE('',*,*,#283,.T.);
#362=ORIENTED_EDGE('',*,*,#280,.F.);
#363=ORIENTED_EDGE('',*,*,#284,.T.);
#364=ORIENTED_EDGE('',*,*,#285,.T.);
#365=ORIENTED_EDGE('',*,*,#286,.T.);
#366=ORIENTED_EDGE('',*,*,#282,.F.);
#367=ORIENTED_EDGE('',*,*,#287,.T.);
#368=ORIENTED_EDGE('',*,*,#288,.T.);
#369=ORIENTED_EDGE('',*,*,#289,.T.);
#370=ORIENTED_EDGE('',*,*,#285,.F.);
#371=ORIENTED_EDGE('',*,*,#290,.T.);
#372=ORIENTED_EDGE('',*,*,#291,.T.);
#373=ORIENTED_EDGE('',*,*,#292,.T.);
#374=ORIENTED_EDGE('',*,*,#288,.F.);
#375=ORIENTED_EDGE('',*,*,#293,.T.);
#376=ORIENTED_EDGE('',*,*,#294,.T.);
#377=ORIENTED_EDGE('',*,*,#295,.T.);
#378=ORIENTED_EDGE('',*,*,#291,.F.);
#379=ORIENTED_EDGE('',*,*,#296,.T.);
#380=ORIENTED_EDGE('',*,*,#297,.T.);
#381=ORIENTED_EDGE('',*,*,#298,.T.);
#382=ORIENTED_EDGE('',*,*,#294,.F.);
#383=ORIENTED_EDGE('',*,*,#299,.T.);
#384=ORIENTED_EDGE('',*,*,#300,.T.);
#385=ORIENTED_EDGE('',*,*,#301,.T.);
#386=ORIENTED_EDGE('',*,*,#297,.F.);
#387=ORIENTED_EDGE('',*,*,#302,.T.);
#388=ORIENTED_EDGE('',*,*,#303,.F.);
#389=ORIENTED_EDGE('',*,*,#304,.T.);
#390=ORIENTED_EDGE('',*,*,#300,.F.);
#391=ORIENTED_EDGE('',*,*,#305,.T.);
#392=ORIENTED_EDGE('',*,*,#305,.F.);
#393=ORIENTED_EDGE('',*,*,#306,.F.);
#394=ORIENTED_EDGE('',*,*,#307,.F.);
#395=ORIENTED_EDGE('',*,*,#308,.T.);
#396=ORIENTED_EDGE('',*,*,#302,.F.);
#397=ORIENTED_EDGE('',*,*,#309,.T.);
#398=ORIENTED_EDGE('',*,*,#310,.T.);
#399=ORIENTED_EDGE('',*,*,#306,.T.);
#400=ORIENTED_EDGE('',*,*,#299,.F.);
#401=ORIENTED_EDGE('',*,*,#311,.F.);
#402=ORIENTED_EDGE('',*,*,#312,.F.);
#403=ORIENTED_EDGE('',*,*,#309,.F.);
#404=ORIENTED_EDGE('',*,*,#296,.F.);
#405=ORIENTED_EDGE('',*,*,#313,.T.);
#406=ORIENTED_EDGE('',*,*,#314,.T.);
#407=ORIENTED_EDGE('',*,*,#311,.T.);
#408=ORIENTED_EDGE('',*,*,#293,.F.);
#409=ORIENTED_EDGE('',*,*,#315,.F.);
#410=ORIENTED_EDGE('',*,*,#316,.F.);
#411=ORIENTED_EDGE('',*,*,#313,.F.);
#412=ORIENTED_EDGE('',*,*,#290,.F.);
#413=ORIENTED_EDGE('',*,*,#317,.T.);
#414=ORIENTED_EDGE('',*,*,#318,.T.);
#415=ORIENTED_EDGE('',*,*,#315,.T.);
#416=ORIENTED_EDGE('',*,*,#287,.F.);
#417=ORIENTED_EDGE('',*,*,#319,.F.);
#418=ORIENTED_EDGE('',*,*,#320,.F.);
#419=ORIENTED_EDGE('',*,*,#317,.F.);
#420=ORIENTED_EDGE('',*,*,#284,.F.);
#421=ORIENTED_EDGE('',*,*,#321,.T.);
#422=ORIENTED_EDGE('',*,*,#322,.T.);
#423=ORIENTED_EDGE('',*,*,#323,.T.);
#424=ORIENTED_EDGE('',*,*,#324,.T.);
#425=ORIENTED_EDGE('',*,*,#319,.T.);
#426=ORIENTED_EDGE('',*,*,#279,.F.);
#427=ORIENTED_EDGE('',*,*,#325,.F.);
#428=ORIENTED_EDGE('',*,*,#326,.T.);
#429=ORIENTED_EDGE('',*,*,#321,.F.);
#430=ORIENTED_EDGE('',*,*,#278,.F.);
#431=ORIENTED_EDGE('',*,*,#327,.F.);
#432=ORIENTED_EDGE('',*,*,#328,.F.);
#433=ORIENTED_EDGE('',*,*,#329,.T.);
#434=ORIENTED_EDGE('',*,*,#325,.T.);
#435=ORIENTED_EDGE('',*,*,#322,.F.);
#436=ORIENTED_EDGE('',*,*,#326,.F.);
#437=ORIENTED_EDGE('',*,*,#329,.F.);
#438=ORIENTED_EDGE('',*,*,#330,.F.);
#439=ORIENTED_EDGE('',*,*,#331,.F.);
#440=ORIENTED_EDGE('',*,*,#332,.F.);
#441=ORIENTED_EDGE('',*,*,#333,.T.);
#442=ORIENTED_EDGE('',*,*,#334,.T.);
#443=ORIENTED_EDGE('',*,*,#335,.F.);
#444=ORIENTED_EDGE('',*,*,#336,.F.);
#445=ORIENTED_EDGE('',*,*,#337,.F.);
#446=ORIENTED_EDGE('',*,*,#338,.F.);
#447=ORIENTED_EDGE('',*,*,#339,.T.);
#448=ORIENTED_EDGE('',*,*,#340,.T.);
#449=ORIENTED_EDGE('',*,*,#341,.T.);
#450=ORIENTED_EDGE('',*,*,#342,.T.);
#451=ORIENTED_EDGE('',*,*,#327,.T.);
#452=ORIENTED_EDGE('',*,*,#281,.F.);
#453=ORIENTED_EDGE('',*,*,#283,.F.);
#454=ORIENTED_EDGE('',*,*,#286,.F.);
#455=ORIENTED_EDGE('',*,*,#289,.F.);
#456=ORIENTED_EDGE('',*,*,#292,.F.);
#457=ORIENTED_EDGE('',*,*,#295,.F.);
#458=ORIENTED_EDGE('',*,*,#298,.F.);
#459=ORIENTED_EDGE('',*,*,#301,.F.);
#460=ORIENTED_EDGE('',*,*,#304,.F.);
#461=ORIENTED_EDGE('',*,*,#324,.F.);
#462=ORIENTED_EDGE('',*,*,#343,.F.);
#463=ORIENTED_EDGE('',*,*,#344,.F.);
#464=ORIENTED_EDGE('',*,*,#345,.F.);
#465=ORIENTED_EDGE('',*,*,#307,.T.);
#466=ORIENTED_EDGE('',*,*,#310,.F.);
#467=ORIENTED_EDGE('',*,*,#312,.T.);
#468=ORIENTED_EDGE('',*,*,#314,.F.);
#469=ORIENTED_EDGE('',*,*,#316,.T.);
#470=ORIENTED_EDGE('',*,*,#318,.F.);
#471=ORIENTED_EDGE('',*,*,#320,.T.);
#472=ORIENTED_EDGE('',*,*,#345,.T.);
#473=ORIENTED_EDGE('',*,*,#346,.F.);
#474=ORIENTED_EDGE('',*,*,#335,.T.);
#475=ORIENTED_EDGE('',*,*,#347,.T.);
#476=ORIENTED_EDGE('',*,*,#344,.T.);
#477=ORIENTED_EDGE('',*,*,#348,.F.);
#478=ORIENTED_EDGE('',*,*,#336,.T.);
#479=ORIENTED_EDGE('',*,*,#346,.T.);
#480=ORIENTED_EDGE('',*,*,#323,.F.);
#481=ORIENTED_EDGE('',*,*,#337,.T.);
#482=ORIENTED_EDGE('',*,*,#348,.T.);
#483=ORIENTED_EDGE('',*,*,#343,.T.);
#484=ORIENTED_EDGE('',*,*,#349,.F.);
#485=ORIENTED_EDGE('',*,*,#350,.F.);
#486=ORIENTED_EDGE('',*,*,#333,.F.);
#487=ORIENTED_EDGE('',*,*,#351,.F.);
#488=ORIENTED_EDGE('',*,*,#350,.T.);
#489=ORIENTED_EDGE('',*,*,#352,.T.);
#490=ORIENTED_EDGE('',*,*,#338,.T.);
#491=ORIENTED_EDGE('',*,*,#303,.T.);
#492=ORIENTED_EDGE('',*,*,#308,.F.);
#493=ORIENTED_EDGE('',*,*,#347,.F.);
#494=ORIENTED_EDGE('',*,*,#334,.F.);
#495=ORIENTED_EDGE('',*,*,#349,.T.);
#496=ORIENTED_EDGE('',*,*,#353,.F.);
#497=ORIENTED_EDGE('',*,*,#339,.F.);
#498=ORIENTED_EDGE('',*,*,#352,.F.);
#499=ORIENTED_EDGE('',*,*,#351,.T.);
#500=ORIENTED_EDGE('',*,*,#332,.T.);
#501=ORIENTED_EDGE('',*,*,#354,.T.);
#502=ORIENTED_EDGE('',*,*,#340,.F.);
#503=ORIENTED_EDGE('',*,*,#353,.T.);
#504=ORIENTED_EDGE('',*,*,#330,.T.);
#505=ORIENTED_EDGE('',*,*,#328,.T.);
#506=ORIENTED_EDGE('',*,*,#342,.F.);
#507=ORIENTED_EDGE('',*,*,#355,.F.);
#508=ORIENTED_EDGE('',*,*,#331,.T.);
#509=ORIENTED_EDGE('',*,*,#355,.T.);
#510=ORIENTED_EDGE('',*,*,#341,.F.);
#511=ORIENTED_EDGE('',*,*,#354,.F.);
#512=CYLINDRICAL_SURFACE('',#567,0.45);
#513=CYLINDRICAL_SURFACE('',#574,0.45);
#514=CYLINDRICAL_SURFACE('',#580,0.45);
#515=CYLINDRICAL_SURFACE('',#586,0.45);
#516=CYLINDRICAL_SURFACE('',#592,0.45);
#517=CYLINDRICAL_SURFACE('',#595,1.);
#518=CYLINDRICAL_SURFACE('',#598,2.);
#519=CYLINDRICAL_SURFACE('',#601,2.);
#520=CYLINDRICAL_SURFACE('',#604,1.);
#521=CYLINDRICAL_SURFACE('',#621,4.);
#522=ADVANCED_FACE('',(#37),#512,.T.);
#523=ADVANCED_FACE('',(#38),#33,.T.);
#524=ADVANCED_FACE('',(#39),#513,.T.);
#525=ADVANCED_FACE('',(#40),#34,.T.);
#526=ADVANCED_FACE('',(#41),#514,.T.);
#527=ADVANCED_FACE('',(#42),#35,.T.);
#528=ADVANCED_FACE('',(#43),#515,.T.);
#529=ADVANCED_FACE('',(#44),#36,.T.);
#530=ADVANCED_FACE('',(#45),#516,.T.);
#531=ADVANCED_FACE('',(#46),#15,.T.);
#532=ADVANCED_FACE('',(#47),#517,.T.);
#533=ADVANCED_FACE('',(#48),#16,.F.);
#534=ADVANCED_FACE('',(#49),#518,.F.);
#535=ADVANCED_FACE('',(#50),#17,.F.);
#536=ADVANCED_FACE('',(#51),#519,.F.);
#537=ADVANCED_FACE('',(#52),#18,.F.);
#538=ADVANCED_FACE('',(#53),#520,.T.);
#539=ADVANCED_FACE('',(#54),#19,.T.);
#540=ADVANCED_FACE('',(#55),#20,.T.);
#541=ADVANCED_FACE('',(#56),#21,.F.);
#542=ADVANCED_FACE('',(#57),#22,.T.);
#543=ADVANCED_FACE('',(#58),#23,.T.);
#544=ADVANCED_FACE('',(#59),#24,.T.);
#545=ADVANCED_FACE('',(#60),#25,.T.);
#546=ADVANCED_FACE('',(#61),#26,.T.);
#547=ADVANCED_FACE('',(#62),#27,.F.);
#548=ADVANCED_FACE('',(#63),#28,.T.);
#549=ADVANCED_FACE('',(#64),#29,.T.);
#550=ADVANCED_FACE('',(#65),#30,.T.);
#551=ADVANCED_FACE('',(#66),#521,.T.);
#552=ADVANCED_FACE('',(#67),#31,.T.);
#553=CLOSED_SHELL('',(#522,#523,#524,#525,#526,#527,#528,#529,#530,#531,
#532,#533,#534,#535,#536,#537,#538,#539,#540,#541,#542,#543,#544,#545,#546,
#547,#548,#549,#550,#551,#552));
#554=DERIVED_UNIT_ELEMENT(#556,1.);
#555=DERIVED_UNIT_ELEMENT(#954,-3.);
#556=(
MASS_UNIT()
NAMED_UNIT(*)
SI_UNIT(.KILO.,.GRAM.)
);
#557=DERIVED_UNIT((#554,#555));
#558=MEASURE_REPRESENTATION_ITEM('density measure',
POSITIVE_RATIO_MEASURE(7850.),#557);
#559=PROPERTY_DEFINITION_REPRESENTATION(#564,#561);
#560=PROPERTY_DEFINITION_REPRESENTATION(#565,#562);
#561=REPRESENTATION('material name',(#563),#951);
#562=REPRESENTATION('density',(#558),#951);
#563=DESCRIPTIVE_REPRESENTATION_ITEM('\X2\94A2\X0\','\X2\94A2\X0\');
#564=PROPERTY_DEFINITION('material property','material name',#961);
#565=PROPERTY_DEFINITION('material property','density of part',#961);
#566=AXIS2_PLACEMENT_3D('',#790,#623,#624);
#567=AXIS2_PLACEMENT_3D('',#791,#625,#626);
#568=AXIS2_PLACEMENT_3D('',#794,#627,#628);
#569=AXIS2_PLACEMENT_3D('',#798,#630,#631);
#570=AXIS2_PLACEMENT_3D('',#800,#633,#634);
#571=AXIS2_PLACEMENT_3D('',#803,#635,#636);
#572=AXIS2_PLACEMENT_3D('',#804,#637,#638);
#573=AXIS2_PLACEMENT_3D('',#805,#639,#640);
#574=AXIS2_PLACEMENT_3D('',#806,#641,#642);
#575=AXIS2_PLACEMENT_3D('',#809,#643,#644);
#576=AXIS2_PLACEMENT_3D('',#812,#647,#648);
#577=AXIS2_PLACEMENT_3D('',#815,#649,#650);
#578=AXIS2_PLACEMENT_3D('',#816,#651,#652);
#579=AXIS2_PLACEMENT_3D('',#817,#653,#654);
#580=AXIS2_PLACEMENT_3D('',#818,#655,#656);
#581=AXIS2_PLACEMENT_3D('',#821,#657,#658);
#582=AXIS2_PLACEMENT_3D('',#824,#661,#662);
#583=AXIS2_PLACEMENT_3D('',#827,#663,#664);
#584=AXIS2_PLACEMENT_3D('',#828,#665,#666);
#585=AXIS2_PLACEMENT_3D('',#829,#667,#668);
#586=AXIS2_PLACEMENT_3D('',#830,#669,#670);
#587=AXIS2_PLACEMENT_3D('',#833,#671,#672);
#588=AXIS2_PLACEMENT_3D('',#836,#675,#676);
#589=AXIS2_PLACEMENT_3D('',#839,#677,#678);
#590=AXIS2_PLACEMENT_3D('',#840,#679,#680);
#591=AXIS2_PLACEMENT_3D('',#841,#681,#682);
#592=AXIS2_PLACEMENT_3D('',#842,#683,#684);
#593=AXIS2_PLACEMENT_3D('',#845,#685,#686);
#594=AXIS2_PLACEMENT_3D('',#848,#689,#690);
#595=AXIS2_PLACEMENT_3D('',#854,#694,#695);
#596=AXIS2_PLACEMENT_3D('',#857,#697,#698);
#597=AXIS2_PLACEMENT_3D('',#858,#699,#700);
#598=AXIS2_PLACEMENT_3D('',#862,#703,#704);
#599=AXIS2_PLACEMENT_3D('',#865,#706,#707);
#600=AXIS2_PLACEMENT_3D('',#866,#708,#709);
#601=AXIS2_PLACEMENT_3D('',#870,#712,#713);
#602=AXIS2_PLACEMENT_3D('',#873,#715,#716);
#603=AXIS2_PLACEMENT_3D('',#874,#717,#718);
#604=AXIS2_PLACEMENT_3D('',#878,#721,#722);
#605=AXIS2_PLACEMENT_3D('',#882,#724,#725);
#606=AXIS2_PLACEMENT_3D('',#885,#727,#728);
#607=AXIS2_PLACEMENT_3D('',#886,#729,#730);
#608=AXIS2_PLACEMENT_3D('',#890,#733,#734);
#609=AXIS2_PLACEMENT_3D('',#896,#738,#739);
#610=AXIS2_PLACEMENT_3D('',#898,#740,#741);
#611=AXIS2_PLACEMENT_3D('',#912,#749,#750);
#612=AXIS2_PLACEMENT_3D('',#921,#755,#756);
#613=AXIS2_PLACEMENT_3D('',#922,#757,#758);
#614=AXIS2_PLACEMENT_3D('',#928,#762,#763);
#615=AXIS2_PLACEMENT_3D('',#931,#766,#767);
#616=AXIS2_PLACEMENT_3D('',#933,#769,#770);
#617=AXIS2_PLACEMENT_3D('',#934,#771,#772);
#618=AXIS2_PLACEMENT_3D('',#940,#776,#777);
#619=AXIS2_PLACEMENT_3D('',#942,#779,#780);
#620=AXIS2_PLACEMENT_3D('',#944,#782,#783);
#621=AXIS2_PLACEMENT_3D('',#946,#785,#786);
#622=AXIS2_PLACEMENT_3D('',#948,#788,#789);
#623=DIRECTION('axis',(0.,0.,1.));
#624=DIRECTION('refdir',(1.,0.,0.));
#625=DIRECTION('center_axis',(-1.,0.,0.));
#626=DIRECTION('ref_axis',(0.,0.707106781186549,-0.707106781186546));
#627=DIRECTION('center_axis',(-1.,0.,0.));
#628=DIRECTION('ref_axis',(0.,0.707106781186549,-0.707106781186546));
#629=DIRECTION('',(-1.,0.,0.));
#630=DIRECTION('center_axis',(1.,0.,0.));
#631=DIRECTION('ref_axis',(0.,0.,-1.));
#632=DIRECTION('',(1.,0.,0.));
#633=DIRECTION('center_axis',(0.,-1.,0.));
#634=DIRECTION('ref_axis',(0.,0.,-1.));
#635=DIRECTION('center_axis',(0.,0.,-1.));
#636=DIRECTION('ref_axis',(-1.,0.,0.));
#637=DIRECTION('center_axis',(0.,-1.,0.));
#638=DIRECTION('ref_axis',(-0.707106781186548,0.,-0.707106781186547));
#639=DIRECTION('center_axis',(0.,1.,0.));
#640=DIRECTION('ref_axis',(-0.707106781186548,0.,-0.707106781186547));
#641=DIRECTION('center_axis',(0.,0.,1.));
#642=DIRECTION('ref_axis',(-0.707106781186547,0.707106781186547,0.));
#643=DIRECTION('center_axis',(0.,0.,-1.));
#644=DIRECTION('ref_axis',(-1.,0.,0.));
#645=DIRECTION('',(0.,0.,-1.));
#646=DIRECTION('',(0.,0.,1.));
#647=DIRECTION('center_axis',(0.,1.,0.));
#648=DIRECTION('ref_axis',(0.,0.,1.));
#649=DIRECTION('center_axis',(1.,0.,0.));
#650=DIRECTION('ref_axis',(0.,0.,-1.));
#651=DIRECTION('center_axis',(0.,1.,0.));
#652=DIRECTION('ref_axis',(0.707106781186548,0.,0.707106781186547));
#653=DIRECTION('center_axis',(0.,-1.,0.));
#654=DIRECTION('ref_axis',(0.707106781186548,0.,0.707106781186547));
#655=DIRECTION('center_axis',(-1.,0.,0.));
#656=DIRECTION('ref_axis',(0.,0.707106781186547,-0.707106781186547));
#657=DIRECTION('center_axis',(1.,0.,0.));
#658=DIRECTION('ref_axis',(0.,0.,-1.));
#659=DIRECTION('',(1.,0.,0.));
#660=DIRECTION('',(-1.,0.,0.));
#661=DIRECTION('center_axis',(0.,1.,0.));
#662=DIRECTION('ref_axis',(0.,0.,1.));
#663=DIRECTION('center_axis',(0.,0.,1.));
#664=DIRECTION('ref_axis',(1.,0.,0.));
#665=DIRECTION('center_axis',(0.,1.,0.));
#666=DIRECTION('ref_axis',(-0.707106781186547,0.,0.707106781186547));
#667=DIRECTION('center_axis',(0.,-1.,0.));
#668=DIRECTION('ref_axis',(-0.707106781186548,0.,0.707106781186548));
#669=DIRECTION('center_axis',(-7.22886761948518E-16,0.,-1.));
#670=DIRECTION('ref_axis',(0.707106781186547,0.707106781186547,0.));
#671=DIRECTION('center_axis',(0.,0.,1.));
#672=DIRECTION('ref_axis',(1.,0.,0.));
#673=DIRECTION('',(7.22886761948518E-16,0.,1.));
#674=DIRECTION('',(-7.22886761948518E-16,0.,-1.));
#675=DIRECTION('center_axis',(0.,-1.,0.));
#676=DIRECTION('ref_axis',(0.,0.,-1.));
#677=DIRECTION('center_axis',(1.,0.,0.));
#678=DIRECTION('ref_axis',(0.,0.,-1.));
#679=DIRECTION('center_axis',(0.,-1.,0.));
#680=DIRECTION('ref_axis',(0.707106781186548,0.,-0.707106781186548));
#681=DIRECTION('center_axis',(0.,1.,0.));
#682=DIRECTION('ref_axis',(0.707106781186548,0.,-0.707106781186548));
#683=DIRECTION('center_axis',(-1.,0.,0.));
#684=DIRECTION('ref_axis',(0.,0.707106781186549,-0.707106781186546));
#685=DIRECTION('center_axis',(-0.707106753030112,0.,0.707106809342982));
#686=DIRECTION('ref_axis',(-0.707106809342982,1.63551291267076E-16,-0.707106753030112));
#687=DIRECTION('',(1.,0.,0.));
#688=DIRECTION('',(-1.,0.,0.));
#689=DIRECTION('center_axis',(0.,0.,-1.));
#690=DIRECTION('ref_axis',(-1.,0.,0.));
#691=DIRECTION('',(0.,1.,0.));
#692=DIRECTION('',(1.,0.,9.91270557701033E-17));
#693=DIRECTION('',(0.,1.,0.));
#694=DIRECTION('center_axis',(0.,-1.,0.));
#695=DIRECTION('ref_axis',(0.707106781186548,0.,-0.707106781186548));
#696=DIRECTION('',(0.,-1.,0.));
#697=DIRECTION('center_axis',(9.82617304445711E-33,1.,-9.9127054345749E-17));
#698=DIRECTION('ref_axis',(0.707106781186548,0.,-0.707106781186548));
#699=DIRECTION('center_axis',(-1.,0.,7.22886761948518E-16));
#700=DIRECTION('ref_axis',(-7.22886761948518E-16,0.,-1.));
#701=DIRECTION('',(0.,1.,0.));
#702=DIRECTION('',(7.22886761948518E-16,9.91270543457489E-17,1.));
#703=DIRECTION('center_axis',(0.,-1.,0.));
#704=DIRECTION('ref_axis',(-0.707106781186548,0.,0.707106781186548));
#705=DIRECTION('',(0.,-1.,0.));
#706=DIRECTION('center_axis',(-9.82617304445711E-33,-1.,9.9127054345749E-17));
#707=DIRECTION('ref_axis',(-0.707106781186548,0.,0.707106781186548));
#708=DIRECTION('center_axis',(0.,0.,1.));
#709=DIRECTION('ref_axis',(-1.,0.,0.));
#710=DIRECTION('',(0.,1.,0.));
#711=DIRECTION('',(1.,-9.82617304445711E-33,0.));
#712=DIRECTION('center_axis',(0.,-1.,0.));
#713=DIRECTION('ref_axis',(0.707106781186547,0.,0.707106781186548));
#714=DIRECTION('',(0.,-1.,0.));
#715=DIRECTION('center_axis',(-9.82617304445711E-33,-1.,9.9127054345749E-17));
#716=DIRECTION('ref_axis',(0.707106781186547,0.,0.707106781186548));
#717=DIRECTION('center_axis',(1.,0.,0.));
#718=DIRECTION('ref_axis',(0.,0.,1.));
#719=DIRECTION('',(0.,1.,0.));
#720=DIRECTION('',(0.,-9.91270543457489E-17,-1.));
#721=DIRECTION('center_axis',(0.,1.,0.));
#722=DIRECTION('ref_axis',(-0.707106781186548,0.,-0.707106781186548));
#723=DIRECTION('',(0.,-1.,0.));
#724=DIRECTION('center_axis',(0.,1.,0.));
#725=DIRECTION('ref_axis',(-0.707106781186548,0.,-0.707106781186548));
#726=DIRECTION('',(0.,1.,0.));
#727=DIRECTION('center_axis',(9.82617304445711E-33,1.,-9.9127054345749E-17));
#728=DIRECTION('ref_axis',(-0.707106781186548,0.,-0.707106781186548));
#729=DIRECTION('center_axis',(0.,0.,-1.));
#730=DIRECTION('ref_axis',(-1.,0.,0.));
#731=DIRECTION('',(0.,1.,0.));
#732=DIRECTION('',(-1.,0.,0.));
#733=DIRECTION('center_axis',(1.,0.,0.));
#734=DIRECTION('ref_axis',(0.,0.,-1.));
#735=DIRECTION('',(0.,0.,-1.));
#736=DIRECTION('',(0.,1.,0.));
#737=DIRECTION('',(0.,0.,-1.));
#738=DIRECTION('center_axis',(0.,1.,0.));
#739=DIRECTION('ref_axis',(-1.,0.,0.));
#740=DIRECTION('center_axis',(0.,1.,0.));
#741=DIRECTION('ref_axis',(0.,0.,1.));
#742=DIRECTION('',(1.,0.,0.));
#743=DIRECTION('',(0.,0.,1.));
#744=DIRECTION('',(0.707106781186547,0.,-0.707106781186548));
#745=DIRECTION('',(0.707106809342982,0.,0.707106753030112));
#746=DIRECTION('',(9.91270557701033E-17,0.,-1.));
#747=DIRECTION('',(-1.,0.,0.));
#748=DIRECTION('',(0.,0.,1.));
#749=DIRECTION('center_axis',(0.,1.,0.));
#750=DIRECTION('ref_axis',(-1.,0.,0.));
#751=DIRECTION('',(0.707106809342982,0.,0.707106753030112));
#752=DIRECTION('',(-0.999766952962628,0.,0.0215879541370233));
#753=DIRECTION('',(0.,0.,1.));
#754=DIRECTION('',(1.,0.,0.));
#755=DIRECTION('center_axis',(0.,1.,0.));
#756=DIRECTION('ref_axis',(0.,0.,1.));
#757=DIRECTION('center_axis',(-9.82617304445711E-33,-1.,9.9127054345749E-17));
#758=DIRECTION('ref_axis',(9.91270557701033E-17,-9.91270543457489E-17,-1.));
#759=DIRECTION('',(0.,-9.91270543457489E-17,-1.));
#760=DIRECTION('',(1.,-9.82617304445711E-33,0.));
#761=DIRECTION('',(-9.91270557701033E-17,9.91270543457489E-17,1.));
#762=DIRECTION('center_axis',(1.,0.,9.91270557701033E-17));
#763=DIRECTION('ref_axis',(9.91270557701033E-17,0.,-1.));
#764=DIRECTION('',(0.,1.,0.));
#765=DIRECTION('',(0.,1.,0.));
#766=DIRECTION('center_axis',(0.,0.,-1.));
#767=DIRECTION('ref_axis',(-1.,0.,0.));
#768=DIRECTION('',(0.,1.,0.));
#769=DIRECTION('center_axis',(-1.,0.,0.));
#770=DIRECTION('ref_axis',(0.,0.,1.));
#771=DIRECTION('center_axis',(0.577350269189626,0.577350269189626,0.577350269189626));
#772=DIRECTION('ref_axis',(0.707106781186547,0.,-0.707106781186548));
#773=DIRECTION('',(-0.816356888726101,0.395098969141133,0.421257919584968));
#774=DIRECTION('',(-0.408248306719988,0.816496580927726,-0.408248274207738));
#775=DIRECTION('',(0.,-0.707106781186547,0.707106781186548));
#776=DIRECTION('center_axis',(0.707106753030112,0.,-0.707106809342982));
#777=DIRECTION('ref_axis',(-0.707106809342982,0.,-0.707106753030112));
#778=DIRECTION('',(0.57735029984247,0.577350253863203,0.577350253863203));
#779=DIRECTION('center_axis',(-0.0151028766795425,0.714537243132386,-0.699434365250073));
#780=DIRECTION('ref_axis',(-0.999766952962628,0.,0.0215879541370233));
#781=DIRECTION('',(0.,-0.699514148298668,-0.714618748935395));
#782=DIRECTION('center_axis',(-1.,0.,0.));
#783=DIRECTION('ref_axis',(0.,0.,1.));
#784=DIRECTION('',(0.,1.,0.));
#785=DIRECTION('center_axis',(0.,1.,0.));
#786=DIRECTION('ref_axis',(0.,0.,1.));
#787=DIRECTION('',(0.,1.,0.));
#788=DIRECTION('center_axis',(0.,0.,1.));
#789=DIRECTION('ref_axis',(1.,0.,0.));
#790=CARTESIAN_POINT('',(0.,0.,0.));
#791=CARTESIAN_POINT('Origin',(70.67500020843,6.75000029802322,7.65));
#792=CARTESIAN_POINT('',(75.0000002980232,7.20000029802322,7.65));
#793=CARTESIAN_POINT('',(75.0000002980232,6.75000029802322,7.2));
#794=CARTESIAN_POINT('Origin',(75.0000002980232,6.75000029802322,7.65));
#795=CARTESIAN_POINT('',(73.5124575552909,6.75000029802322,7.2));
#796=CARTESIAN_POINT('',(70.67500020843,6.75000029802322,7.2));
#797=CARTESIAN_POINT('',(73.5124575552909,7.20000029802322,7.65));
#798=CARTESIAN_POINT('Origin',(73.5124575552909,6.75000029802322,7.65));
#799=CARTESIAN_POINT('',(70.67500020843,7.20000029802322,7.65));
#800=CARTESIAN_POINT('Origin',(73.5124575552909,6.75000029802322,8.2));
#801=CARTESIAN_POINT('',(72.5124575552909,6.75000029802322,8.2));
#802=CARTESIAN_POINT('',(72.9624575552909,7.20000029802322,8.2));
#803=CARTESIAN_POINT('Origin',(72.9624575552909,6.75000029802322,8.2));
#804=CARTESIAN_POINT('Origin',(73.5124575552909,7.20000029802322,8.2));
#805=CARTESIAN_POINT('Origin',(73.5124575552909,6.75000029802322,8.2));
#806=CARTESIAN_POINT('Origin',(72.9624575552909,6.75000029802322,9.275));
#807=CARTESIAN_POINT('',(72.5124575552909,6.75000029802322,15.5248743904904));
#808=CARTESIAN_POINT('',(72.9624575552909,7.20000029802322,15.5248743904904));
#809=CARTESIAN_POINT('Origin',(72.9624575552909,6.75000029802322,15.5248743904904));
#810=CARTESIAN_POINT('',(72.9624575552909,7.20000029802322,9.275));
#811=CARTESIAN_POINT('',(72.5124575552909,6.75000029802322,9.275));
#812=CARTESIAN_POINT('Origin',(70.5124575552909,6.75000029802322,15.5248743904904));
#813=CARTESIAN_POINT('',(70.5124575552909,6.75000029802322,17.5248743904904));
#814=CARTESIAN_POINT('',(70.5124575552909,7.20000029802322,17.9748743904904));
#815=CARTESIAN_POINT('Origin',(70.5124575552909,6.75000029802322,17.9748743904904));
#816=CARTESIAN_POINT('Origin',(70.5124575552909,7.20000029802322,15.5248743904904));
#817=CARTESIAN_POINT('Origin',(70.5124575552909,6.75000029802322,15.5248743904904));
#818=CARTESIAN_POINT('Origin',(69.4312288370638,6.75000029802322,17.9748743904904));
#819=CARTESIAN_POINT('',(67.7124575552909,6.75000029802322,17.5248743904904));
#820=CARTESIAN_POINT('',(67.7124575552909,7.20000029802322,17.9748743904904));
#821=CARTESIAN_POINT('Origin',(67.7124575552909,6.75000029802322,17.9748743904904));
#822=CARTESIAN_POINT('',(69.4312288370638,7.20000029802322,17.9748743904904));
#823=CARTESIAN_POINT('',(69.4312288370638,6.75000029802322,17.5248743904904));
#824=CARTESIAN_POINT('Origin',(67.7124575552909,6.75000029802322,15.5248743904904));
#825=CARTESIAN_POINT('',(65.7124575552909,6.75000029802322,15.5248743904904));
#826=CARTESIAN_POINT('',(65.2624575552909,7.20000029802322,15.5248743904904));
#827=CARTESIAN_POINT('Origin',(65.2624575552909,6.75000029802322,15.5248743904904));
#828=CARTESIAN_POINT('Origin',(67.7124575552909,7.20000029802322,15.5248743904904));
#829=CARTESIAN_POINT('Origin',(67.7124575552909,6.75000029802322,15.5248743904904));
#830=CARTESIAN_POINT('Origin',(65.2624575552909,6.75000029802322,14.4374371952452));
#831=CARTESIAN_POINT('',(65.7124575552909,6.75000029802322,8.2));
#832=CARTESIAN_POINT('',(65.2624575552909,7.20000029802322,8.2));
#833=CARTESIAN_POINT('Origin',(65.2624575552909,6.75000029802322,8.2));
#834=CARTESIAN_POINT('',(65.2624575552909,7.20000029802322,14.4374371952452));
#835=CARTESIAN_POINT('',(65.7124575552909,6.75000029802322,14.4374371952452));
#836=CARTESIAN_POINT('Origin',(64.7124575552909,6.75000029802322,8.2));
#837=CARTESIAN_POINT('',(64.7124575552909,6.75000029802322,7.2));
#838=CARTESIAN_POINT('',(64.7124575552909,7.20000029802322,7.65));
#839=CARTESIAN_POINT('Origin',(64.7124575552909,6.75000029802322,7.65));
#840=CARTESIAN_POINT('Origin',(64.7124575552909,7.20000029802322,8.2));
#841=CARTESIAN_POINT('Origin',(64.7124575552909,6.75000029802322,8.2));
#842=CARTESIAN_POINT('Origin',(70.67500020843,6.75000029802322,7.65));
#843=CARTESIAN_POINT('',(62.6500003338605,7.20000029802322,7.65));
#844=CARTESIAN_POINT('',(62.2000002980232,6.75000029802322,7.2));
#845=CARTESIAN_POINT('Origin',(62.6500003338605,6.75000029802322,7.65));
#846=CARTESIAN_POINT('',(70.67500020843,7.20000029802322,7.65));
#847=CARTESIAN_POINT('',(70.67500020843,6.75000029802322,7.2));
#848=CARTESIAN_POINT('Origin',(75.0000002980232,2.70000029802322,7.2));
#849=CARTESIAN_POINT('',(64.7124575552909,6.70000029802322,7.19999983906746));
#850=CARTESIAN_POINT('',(64.7124575552909,4.95000029802322,7.2));
#851=CARTESIAN_POINT('',(62.2000002980232,6.70000029802322,7.19999983906746));
#852=CARTESIAN_POINT('',(62.2000002980232,6.70000029802322,7.19999983906746));
#853=CARTESIAN_POINT('',(62.2000002980232,2.70000029802322,7.2));
#854=CARTESIAN_POINT('Origin',(64.7124575552909,4.95000029802322,8.2));
#855=CARTESIAN_POINT('',(65.7124575552909,6.70000029802322,8.2));
#856=CARTESIAN_POINT('',(65.7124575552909,4.95000029802322,8.2));
#857=CARTESIAN_POINT('Origin',(64.7124575552909,6.70000029802322,8.2));
#858=CARTESIAN_POINT('Origin',(65.7124575552909,7.20000029802322,17.5248743904904));
#859=CARTESIAN_POINT('',(65.7124575552909,6.70000029802322,15.5248743904904));
#860=CARTESIAN_POINT('',(65.7124575552909,7.20000029802322,15.5248743904904));
#861=CARTESIAN_POINT('',(65.7124575552909,6.70000029802322,17.9624371952452));
#862=CARTESIAN_POINT('Origin',(67.7124575552909,7.20000029802322,15.5248743904904));
#863=CARTESIAN_POINT('',(67.7124575552909,6.70000029802322,17.5248743904904));
#864=CARTESIAN_POINT('',(67.7124575552909,7.20000029802322,17.5248743904904));
#865=CARTESIAN_POINT('Origin',(67.7124575552909,6.70000029802322,15.5248743904904));
#866=CARTESIAN_POINT('Origin',(72.5124575552909,7.20000029802322,17.5248743904904));
#867=CARTESIAN_POINT('',(70.5124575552909,6.70000029802322,17.5248743904904));
#868=CARTESIAN_POINT('',(70.5124575552909,7.20000029802322,17.5248743904904));
#869=CARTESIAN_POINT('',(67.356228926657,6.70000029802322,17.5248743904904));
#870=CARTESIAN_POINT('Origin',(70.5124575552909,7.20000029802322,15.5248743904904));
#871=CARTESIAN_POINT('',(72.5124575552909,6.70000029802322,15.5248743904904));
#872=CARTESIAN_POINT('',(72.5124575552909,7.20000029802322,15.5248743904904));
#873=CARTESIAN_POINT('Origin',(70.5124575552909,6.70000029802322,15.5248743904904));
#874=CARTESIAN_POINT('Origin',(72.5124575552909,7.20000029802322,7.2));
#875=CARTESIAN_POINT('',(72.5124575552909,6.70000029802322,8.2));
#876=CARTESIAN_POINT('',(72.5124575552909,4.95000029802322,8.2));
#877=CARTESIAN_POINT('',(72.5124575552909,6.70000029802322,12.8));
#878=CARTESIAN_POINT('Origin',(73.5124575552909,4.95000029802322,8.2));
#879=CARTESIAN_POINT('',(73.5124575552909,2.70000029802322,7.2));
#880=CARTESIAN_POINT('',(73.5124575552909,4.95000029802322,7.2));
#881=CARTESIAN_POINT('',(73.4000002980232,2.70000029802322,7.20634343695226));
#882=CARTESIAN_POINT('Origin',(73.5124575552909,2.70000029802322,8.2));
#883=CARTESIAN_POINT('',(73.4000002980232,6.70000029802322,7.20634343695226));
#884=CARTESIAN_POINT('',(73.4000002980232,4.95000029802322,7.20634343695226));
#885=CARTESIAN_POINT('Origin',(73.5124575552909,6.70000029802322,8.2));
#886=CARTESIAN_POINT('Origin',(75.0000002980232,2.70000029802322,7.2));
#887=CARTESIAN_POINT('',(75.0000002980232,2.70000029802322,7.2));
#888=CARTESIAN_POINT('',(75.0000002980232,2.70000029802322,7.2));
#889=CARTESIAN_POINT('',(75.0000002980232,2.70000029802322,7.2));
#890=CARTESIAN_POINT('Origin',(75.0000002980232,2.70000029802322,16.));
#891=CARTESIAN_POINT('',(75.0000002980232,7.20000029802322,16.));
#892=CARTESIAN_POINT('',(75.0000002980232,7.20000029802322,19.9999995529652));
#893=CARTESIAN_POINT('',(75.0000002980232,2.70000029802322,16.));
#894=CARTESIAN_POINT('',(75.0000002980232,2.70000029802322,16.));
#895=CARTESIAN_POINT('',(75.0000002980232,2.70000029802322,19.9999995529652));
#896=CARTESIAN_POINT('Origin',(66.3500001188368,2.70000029802322,11.35));
#897=CARTESIAN_POINT('',(71.0000002980232,2.70000029802322,19.9999995529652));
#898=CARTESIAN_POINT('Origin',(71.0000002980232,2.70000029802322,16.));
#899=CARTESIAN_POINT('',(57.6999999396503,2.70000029802322,19.9999995529652));
#900=CARTESIAN_POINT('',(57.6999999396503,2.70000029802322,19.9999995529652));
#901=CARTESIAN_POINT('',(57.6999999396503,2.70000029802322,6.70000035837292));
#902=CARTESIAN_POINT('',(57.6999999396503,2.70000029802322,2.7));
#903=CARTESIAN_POINT('',(59.7000001984752,2.70000029802322,4.70000009954803));
#904=CARTESIAN_POINT('',(59.70000020843,2.70000029802322,4.70000008959323));
#905=CARTESIAN_POINT('',(62.2000002980232,2.70000029802322,7.2));
#906=CARTESIAN_POINT('',(57.6999999396503,2.70000029802322,2.7));
#907=CARTESIAN_POINT('',(62.2000002980232,2.70000029802322,18.4));
#908=CARTESIAN_POINT('',(62.2000002980232,2.70000029802322,18.4));
#909=CARTESIAN_POINT('',(73.4000002980232,2.70000029802322,18.4));
#910=CARTESIAN_POINT('',(73.4000002980232,2.70000029802322,18.4));
#911=CARTESIAN_POINT('',(73.4000002980232,2.70000029802322,7.2));
#912=CARTESIAN_POINT('Origin',(66.3500001188368,7.20000029802322,11.35));
#913=CARTESIAN_POINT('',(62.2000002980232,7.20000029802322,7.2));
#914=CARTESIAN_POINT('',(64.2750003358515,7.20000029802322,9.27499987257851));
#915=CARTESIAN_POINT('',(57.6999999396503,7.20000029802322,7.29716844617165));
#916=CARTESIAN_POINT('',(61.9792484312842,7.20000029802322,7.20476669203828));
#917=CARTESIAN_POINT('',(57.6999999396503,7.20000029802322,19.9999995529652));
#918=CARTESIAN_POINT('',(57.6999999396503,7.20000029802322,2.7));
#919=CARTESIAN_POINT('',(71.0000002980232,7.20000029802322,19.9999995529652));
#920=CARTESIAN_POINT('',(57.6999999396503,7.20000029802322,19.9999995529652));
#921=CARTESIAN_POINT('Origin',(71.0000002980232,7.20000029802322,16.));
#922=CARTESIAN_POINT('Origin',(62.2000002980232,6.70000029802322,18.4));
#923=CARTESIAN_POINT('',(73.4000002980232,6.70000029802322,18.4));
#924=CARTESIAN_POINT('',(73.4000002980232,6.70000029802322,12.8));
#925=CARTESIAN_POINT('',(62.2000002980232,6.70000029802322,18.4));
#926=CARTESIAN_POINT('',(67.8000002980232,6.70000029802322,18.4));
#927=CARTESIAN_POINT('',(62.2000002980232,6.70000029802322,18.4));
#928=CARTESIAN_POINT('Origin',(62.2000002980232,2.70000029802322,18.4));
#929=CARTESIAN_POINT('',(62.2000002980232,2.70000029802322,18.4));
#930=CARTESIAN_POINT('',(62.2000002980232,2.70000029802322,7.2));
#931=CARTESIAN_POINT('Origin',(73.4000002980232,2.70000029802322,18.4));
#932=CARTESIAN_POINT('',(73.4000002980232,2.70000029802322,18.4));
#933=CARTESIAN_POINT('Origin',(73.4000002980232,2.70000029802322,7.2));
#934=CARTESIAN_POINT('Origin',(61.1666668452322,-0.233332975581293,6.16666672639548));
#935=CARTESIAN_POINT('',(59.033333463231,4.03333371541934,4.03333341739611));
#936=CARTESIAN_POINT('',(57.6999999396503,4.67863812573686,4.72136253065928));
#937=CARTESIAN_POINT('',(58.5492723597159,4.26760875571275,4.28311948061774));
#938=CARTESIAN_POINT('',(60.8500002293351,0.40000032788763,5.85000003882373));
#939=CARTESIAN_POINT('',(57.6999999396503,3.10000047720968,6.30000017918646));
#940=CARTESIAN_POINT('Origin',(62.2000002980232,2.70000029802322,7.2));
#941=CARTESIAN_POINT('',(60.7161948802049,5.7161949983728,5.71619470034958));
#942=CARTESIAN_POINT('Origin',(57.6999999396503,7.20000029802322,7.29716844617165));
#943=CARTESIAN_POINT('',(57.6999999396503,4.95000029802322,4.99858422308582));
#944=CARTESIAN_POINT('Origin',(57.6999999396503,2.70000029802322,2.7));
#945=CARTESIAN_POINT('',(57.6999999396503,2.70000029802322,19.9999995529652));
#946=CARTESIAN_POINT('Origin',(71.0000002980232,2.70000029802322,16.));
#947=CARTESIAN_POINT('',(71.0000002980232,2.70000029802322,19.9999995529652));
#948=CARTESIAN_POINT('Origin',(57.6999999396503,2.70000029802322,19.9999995529652));
#949=UNCERTAINTY_MEASURE_WITH_UNIT(LENGTH_MEASURE(0.01),#953,
'DISTANCE_ACCURACY_VALUE',
'Maximum model space distance between geometric entities at asserted c
onnectivities');
#950=UNCERTAINTY_MEASURE_WITH_UNIT(LENGTH_MEASURE(0.01),#953,
'DISTANCE_ACCURACY_VALUE',
'Maximum model space distance between geometric entities at asserted c
onnectivities');
#951=(
GEOMETRIC_REPRESENTATION_CONTEXT(3)
GLOBAL_UNCERTAINTY_ASSIGNED_CONTEXT((#949))
GLOBAL_UNIT_ASSIGNED_CONTEXT((#953,#955,#956))
REPRESENTATION_CONTEXT('','3D')
);
#952=(
GEOMETRIC_REPRESENTATION_CONTEXT(3)
GLOBAL_UNCERTAINTY_ASSIGNED_CONTEXT((#950))
GLOBAL_UNIT_ASSIGNED_CONTEXT((#953,#955,#956))
REPRESENTATION_CONTEXT('','3D')
);
#953=(
LENGTH_UNIT()
NAMED_UNIT(*)
SI_UNIT(.MILLI.,.METRE.)
);
#954=(
LENGTH_UNIT()
NAMED_UNIT(*)
SI_UNIT($,.METRE.)
);
#955=(
NAMED_UNIT(*)
PLANE_ANGLE_UNIT()
SI_UNIT($,.RADIAN.)
);
#956=(
NAMED_UNIT(*)
SI_UNIT($,.STERADIAN.)
SOLID_ANGLE_UNIT()
);
#957=SHAPE_DEFINITION_REPRESENTATION(#958,#959);
#958=PRODUCT_DEFINITION_SHAPE('',$,#961);
#959=SHAPE_REPRESENTATION('',(#566),#951);
#960=PRODUCT_DEFINITION_CONTEXT('part definition',#965,'design');
#961=PRODUCT_DEFINITION('2025-11-30-02-53-01-628','(\X2\672A4FDD5B58\X0\)',
#962,#960);
#962=PRODUCT_DEFINITION_FORMATION('',$,#967);
#963=PRODUCT_RELATED_PRODUCT_CATEGORY('(\X2\672A4FDD5B58\X0\)',
'(\X2\672A4FDD5B58\X0\)',(#967));
#964=APPLICATION_PROTOCOL_DEFINITION('international standard',
'automotive_design',2009,#965);
#965=APPLICATION_CONTEXT(
'Core Data for Automotive Mechanical Design Process');
#966=PRODUCT_CONTEXT('part definition',#965,'mechanical');
#967=PRODUCT('2025-11-30-02-53-01-628','(\X2\672A4FDD5B58\X0\)',$,(#966));
#968=PRESENTATION_STYLE_ASSIGNMENT((#969));
#969=SURFACE_STYLE_USAGE(.BOTH.,#970);
#970=SURFACE_SIDE_STYLE('',(#971));
#971=SURFACE_STYLE_FILL_AREA(#972);
#972=FILL_AREA_STYLE('\X2\94A2\X0\ - \X2\7F0E5149\X0\',(#973));
#973=FILL_AREA_STYLE_COLOUR('\X2\94A2\X0\ - \X2\7F0E5149\X0\',#974);
#974=COLOUR_RGB('\X2\94A2\X0\ - \X2\7F0E5149\X0\',0.627450980392157,0.627450980392157,
0.627450980392157);
ENDSEC;
END-ISO-10303-21;
